<svg xmlns="http://www.w3.org/2000/svg" viewBox="0 0 53.06 51.95"><defs><style>.cls-1{fill:#2577bd;}.cls-2{fill:#fff;}.cls-3{fill:#ea6945;}</style></defs><title>agriculture_map_active_marked</title><g id="Layer_2" data-name="Layer 2"><g id="Layer_1-2" data-name="Layer 1"><g id="agriculture_map_active_marked"><circle class="cls-1" cx="22.75" cy="29.2" r="22.75"/><polygon class="cls-1" points="23.08 51.95 45.5 51.95 45.5 27.97 28.66 37.82 23.08 51.95"/><path class="cls-2" d="M25.88,38a4.06,4.06,0,0,1-2,1.18v1a1,1,0,0,1-1.9,0v-1A3.87,3.87,0,0,1,19.88,38c-1.05-1.05-1.49-2.32-1-2.83s1.77-.07,2.82,1a4.17,4.17,0,0,1,1.12,1.78h.08A4.14,4.14,0,0,1,24,36.15c1.05-1.06,2.31-1.5,2.82-1S26.93,36.94,25.88,38Zm0-4.15c-1.06,1-2.32,1.49-2.83,1a.69.69,0,0,1-.17-.34.69.69,0,0,1-.17.34c-.51.5-1.78.06-2.83-1s-1.49-2.32-1-2.83,1.77-.06,2.82,1a4.14,4.14,0,0,1,1.16,1.91A4.11,4.11,0,0,1,24,32c1.06-1.05,2.32-1.5,2.83-1S26.93,32.79,25.88,33.84Zm0-4.09c-1.06,1.05-2.32,1.49-2.83,1a.65.65,0,0,1-.17-.33.65.65,0,0,1-.17.33c-.51.51-1.78.07-2.83-1s-1.49-2.32-1-2.83,1.77-.07,2.82,1a4.17,4.17,0,0,1,1.16,1.92A4.14,4.14,0,0,1,24,27.9c1.06-1,2.32-1.49,2.83-1S26.93,28.69,25.88,29.75Zm0-4.1c-1.06,1.05-2.32,1.49-2.83,1a.69.69,0,0,1-.17-.34.69.69,0,0,1-.17.34c-.51.5-1.78.06-2.83-1s-1.49-2.32-1-2.83,1.77-.06,2.82,1a4.14,4.14,0,0,1,1.16,1.91A4.11,4.11,0,0,1,24,23.81c1.06-1,2.32-1.49,2.83-1S26.93,24.6,25.88,25.65Zm-3-1.92c-.72,0-1.3-1.2-1.3-2.69s.58-2.7,1.3-2.7,1.3,1.21,1.3,2.7S23.6,23.73,22.88,23.73Z"/><circle class="cls-3" cx="41.68" cy="11.38" r="11.38"/><polygon class="cls-2" points="45.72 7.87 40.17 12.43 37.63 10.56 36.61 11.66 39.74 15.31 40.29 15.95 40.87 15.33 46.75 8.97 45.72 7.87"/></g></g></g></svg>