<svg xmlns="http://www.w3.org/2000/svg" viewBox="0 0 40 40"><defs><style>.cls-1{fill:#2c2830;}.cls-2{fill:#fff;}</style></defs><title>agriculture_black</title><g id="Layer_2" data-name="Layer 2"><g id="Layer_1-2" data-name="Layer 1"><g id="agriculture_black"><circle class="cls-1" cx="20" cy="20" r="20"/><path class="cls-2" d="M22.75,27.73a3.43,3.43,0,0,1-1.78,1v.86a.85.85,0,0,1-.84.84.84.84,0,0,1-.83-.84v-.86a3.42,3.42,0,0,1-1.82-1c-.93-.93-1.32-2-.87-2.49s1.56-.06,2.49.87a3.69,3.69,0,0,1,1,1.57l.05,0h0a3.73,3.73,0,0,1,1-1.56c.92-.93,2-1.32,2.48-.87S23.67,26.8,22.75,27.73Zm0-3.65c-.93.92-2,1.31-2.49.87a.71.71,0,0,1-.15-.3A.61.61,0,0,1,20,25c-.44.44-1.56.05-2.48-.87s-1.32-2-.87-2.49,1.56-.06,2.49.87a3.64,3.64,0,0,1,1,1.68,3.67,3.67,0,0,1,1-1.68c.92-.93,2-1.31,2.48-.87S23.67,23.15,22.75,24.08Zm0-3.6c-.93.93-2,1.31-2.49.87a.71.71,0,0,1-.15-.3.61.61,0,0,1-.15.3c-.44.44-1.56.06-2.48-.87s-1.32-2-.87-2.49,1.56,0,2.49.87a3.64,3.64,0,0,1,1,1.68,3.67,3.67,0,0,1,1-1.68c.92-.92,2-1.31,2.48-.87S23.67,19.55,22.75,20.48Zm0-3.6c-.93.93-2,1.31-2.49.87a.71.71,0,0,1-.15-.3.61.61,0,0,1-.15.3c-.44.44-1.56.06-2.48-.87s-1.32-2-.87-2.49,1.56-.05,2.49.87a3.64,3.64,0,0,1,1,1.68,3.67,3.67,0,0,1,1-1.68c.92-.92,2-1.31,2.48-.87S23.67,16,22.75,16.88ZM20.11,15.2c-.63,0-1.14-1.06-1.14-2.37s.51-2.37,1.14-2.37,1.15,1.06,1.15,2.37S20.75,15.2,20.11,15.2Z"/></g></g></g></svg>