<svg xmlns="http://www.w3.org/2000/svg" viewBox="0 0 11.8 32"><defs><style>.cls-1{fill:#2c2830;}</style></defs><title>agriculture</title><g id="Layer_2" data-name="Layer 2"><g id="Layer_1-2" data-name="Layer 1"><g id="agriculture"><path class="cls-1" d="M10.12,27.63a5.57,5.57,0,0,1-2.85,1.66v1.38a1.34,1.34,0,0,1-2.67,0V29.29a5.42,5.42,0,0,1-2.92-1.66C.2,26.15-.42,24.37.3,23.66s2.49-.1,4,1.38a5.92,5.92,0,0,1,1.56,2.51l.09,0H6A6,6,0,0,1,7.53,25c1.48-1.48,3.26-2.1,4-1.38S11.6,26.15,10.12,27.63Zm0-5.83c-1.49,1.48-3.27,2.1-4,1.38a1.05,1.05,0,0,1-.24-.47,1.05,1.05,0,0,1-.24.47c-.72.72-2.5.1-4-1.38s-2.1-3.26-1.38-4,2.49-.09,4,1.39A5.79,5.79,0,0,1,5.9,21.9a5.79,5.79,0,0,1,1.63-2.69c1.48-1.48,3.26-2.11,4-1.39S11.6,20.32,10.12,21.8Zm0-5.76c-1.49,1.48-3.27,2.1-4,1.38A1,1,0,0,1,5.9,17a1,1,0,0,1-.24.47c-.72.72-2.5.1-4-1.38s-2.1-3.26-1.38-4,2.49-.09,4,1.39A5.79,5.79,0,0,1,5.9,16.14a5.79,5.79,0,0,1,1.63-2.69c1.48-1.48,3.26-2.1,4-1.39S11.6,14.56,10.12,16Zm0-5.76c-1.49,1.48-3.27,2.1-4,1.38a1,1,0,0,1-.24-.46,1,1,0,0,1-.24.46c-.72.72-2.5.1-4-1.38S-.42,7,.3,6.3s2.49-.09,4,1.39A5.79,5.79,0,0,1,5.9,10.38,5.79,5.79,0,0,1,7.53,7.69c1.48-1.48,3.26-2.1,4-1.39S11.6,8.8,10.12,10.28ZM5.9,7.58c-1,0-1.83-1.69-1.83-3.79S4.89,0,5.9,0,7.73,1.7,7.73,3.79,6.91,7.58,5.9,7.58Z"/></g></g></g></svg>