<svg xmlns="http://www.w3.org/2000/svg" viewBox="0 0 46 46"><defs><style>.cls-1{fill:#2577bd;}.cls-2{fill:#fff;}</style></defs><title>agriculture_map_active</title><g id="Layer_2" data-name="Layer 2"><g id="Layer_1-2" data-name="Layer 1"><g id="agriculture_map_active"><circle class="cls-1" cx="23" cy="23" r="23"/><polygon class="cls-1" points="23.34 46 46 46 46 21.75 28.97 31.72 23.34 46"/><path class="cls-2" d="M26.16,31.89a4,4,0,0,1-2.05,1.19v1a1,1,0,1,1-1.92,0v-1a4,4,0,0,1-2.09-1.19c-1.06-1.07-1.51-2.35-1-2.86S20.9,29,22,30a4.34,4.34,0,0,1,1.13,1.81l.06,0h0A4.36,4.36,0,0,1,24.3,30c1.06-1.06,2.34-1.51,2.86-1S27.22,30.82,26.16,31.89Zm0-4.2c-1.06,1.07-2.34,1.51-2.86,1a.69.69,0,0,1-.17-.34.69.69,0,0,1-.17.34c-.52.51-1.8.07-2.86-1s-1.51-2.34-1-2.86,1.8-.07,2.86,1a4.14,4.14,0,0,1,1.17,1.93,4.14,4.14,0,0,1,1.17-1.93c1.06-1.07,2.34-1.51,2.86-1S27.22,26.63,26.16,27.69Zm0-4.14c-1.06,1.07-2.34,1.51-2.86,1a.69.69,0,0,1-.17-.34.69.69,0,0,1-.17.34c-.52.51-1.8.07-2.86-1s-1.51-2.34-1-2.86,1.8-.06,2.86,1a4.12,4.12,0,0,1,1.17,1.94,4.12,4.12,0,0,1,1.17-1.94c1.06-1.06,2.34-1.51,2.86-1S27.22,22.49,26.16,23.55Zm0-4.14c-1.06,1.07-2.34,1.51-2.86,1a.69.69,0,0,1-.17-.34.69.69,0,0,1-.17.34c-.52.51-1.8.07-2.86-1s-1.51-2.34-1-2.86,1.8-.06,2.86,1a4.12,4.12,0,0,1,1.17,1.94,4.12,4.12,0,0,1,1.17-1.94c1.06-1.06,2.34-1.51,2.86-1S27.22,18.35,26.16,19.41Zm-3-1.94c-.73,0-1.32-1.21-1.32-2.72S22.4,12,23.13,12s1.32,1.22,1.32,2.72S23.86,17.47,23.13,17.47Z"/></g></g></g></svg>