<svg xmlns="http://www.w3.org/2000/svg" viewBox="0 0 46.59 45.67"><defs><style>.cls-1{fill:#2577bd;}.cls-2{fill:#fff;}.cls-3{fill:#ea6945;}</style></defs><title>agriculture_map_selected_marked</title><g id="Layer_2" data-name="Layer 2"><g id="Layer_1-2" data-name="Layer 1"><g id="agriculture_map_selected_marked"><circle class="cls-1" cx="20" cy="25.67" r="20"/><polygon class="cls-1" points="20.29 45.67 40 45.67 40 24.58 25.19 33.24 20.29 45.67"/><path class="cls-2" d="M22.75,33.39a3.53,3.53,0,0,1-1.78,1v.86a.84.84,0,0,1-.84.83.83.83,0,0,1-.83-.83v-.86a3.38,3.38,0,0,1-1.82-1c-.93-.92-1.32-2-.87-2.48s1.56-.06,2.49.86a3.81,3.81,0,0,1,1,1.57h.07a3.79,3.79,0,0,1,1-1.56c.92-.92,2-1.31,2.48-.86S23.67,32.47,22.75,33.39Zm0-3.65c-.93.93-2,1.32-2.49.87a.73.73,0,0,1-.15-.29.62.62,0,0,1-.15.29c-.44.45-1.56.06-2.48-.87s-1.32-2-.87-2.48,1.56-.06,2.49.87a3.54,3.54,0,0,1,1,1.68,3.57,3.57,0,0,1,1-1.68c.92-.93,2-1.32,2.48-.87S23.67,28.82,22.75,29.74Zm0-3.6c-.93.93-2,1.32-2.49.87a.73.73,0,0,1-.15-.29A.58.58,0,0,1,20,27c-.44.45-1.56.06-2.48-.87s-1.32-2-.87-2.48,1.56-.06,2.49.87a3.54,3.54,0,0,1,1,1.68,3.57,3.57,0,0,1,1-1.68c.92-.93,2-1.32,2.48-.87S23.67,25.22,22.75,26.14Zm0-3.59c-.93.92-2,1.31-2.49.86a.73.73,0,0,1-.15-.29.62.62,0,0,1-.15.29c-.44.45-1.56.06-2.48-.86s-1.32-2-.87-2.49,1.56-.06,2.49.87a3.54,3.54,0,0,1,1,1.68,3.57,3.57,0,0,1,1-1.68c.92-.93,2-1.32,2.48-.87S23.67,21.62,22.75,22.55Zm-2.64-1.69c-.63,0-1.14-1.06-1.14-2.37s.51-2.37,1.14-2.37,1.15,1.06,1.15,2.37S20.75,20.86,20.11,20.86Z"/><circle class="cls-3" cx="36.59" cy="10" r="10"/><polygon class="cls-2" points="40.14 6.92 35.26 10.92 33.03 9.28 32.13 10.25 34.89 13.45 35.37 14.02 35.88 13.47 41.05 7.88 40.14 6.92"/></g></g></g></svg>