<svg xmlns="http://www.w3.org/2000/svg" viewBox="0 0 46.59 46.19"><defs><style>.cls-1{fill:#2577bd;}.cls-2{fill:#fff;}.cls-3{fill:#ea6945;}</style></defs><title>development_map_selected_marked</title><g id="Layer_2" data-name="Layer 2"><g id="Layer_1-2" data-name="Layer 1"><g id="development_map_selected_marked"><circle class="cls-1" cx="20" cy="26.19" r="20"/><polygon class="cls-1" points="20.29 46.19 40 46.19 40 25.11 25.19 33.77 20.29 46.19"/><path class="cls-2" d="M23.09,19.51v11.2h-7V19.51h7m1.4-1.4h-9.8v14h9.8v-14Z"/><path class="cls-2" d="M23.79,22.31v-1.4h-2.1v-2.1h-1.4v2.1h-1.4v-2.1h-1.4v2.1h-2.1v1.4h2.1v1.4h-2.1v1.4h2.1v1.4h-2.1v1.4h2.1v3.5h1.4v-3.5h1.4v3.5h1.4v-3.5h2.1v-1.4h-2.1v-1.4h2.1v-1.4h-2.1v-1.4Zm-3.5,4.2h-1.4v-1.4h1.4Zm0-2.8h-1.4v-1.4h1.4Z"/><rect class="cls-2" x="12.59" y="25.81" width="2.8" height="6.3"/><rect class="cls-2" x="23.79" y="25.81" width="2.8" height="6.3"/><circle class="cls-3" cx="36.59" cy="10" r="10"/><polygon class="cls-2" points="40.14 6.92 35.26 10.92 33.03 9.28 32.13 10.25 34.89 13.45 35.37 14.02 35.88 13.47 41.05 7.88 40.14 6.92"/></g></g></g></svg>