<svg xmlns="http://www.w3.org/2000/svg" viewBox="0 0 46 46"><defs><style>.cls-1{fill:#2577bd;}.cls-2{fill:#fff;}</style></defs><title>development_map_active</title><g id="Layer_2" data-name="Layer 2"><g id="Layer_1-2" data-name="Layer 1"><g id="development_map_active"><circle class="cls-1" cx="23" cy="23" r="23"/><polygon class="cls-1" points="23.34 46 46 46 46 21.75 28.97 31.72 23.34 46"/><path class="cls-2" d="M26.56,15.31V28.2H18.5V15.31h8.06m1.61-1.61H16.89V29.81H28.17V13.7Z"/><path class="cls-2" d="M27.36,18.53V16.92H25V14.5H23.34v2.42H21.72V14.5H20.11v2.42H17.7v1.61h2.41v1.61H17.7v1.61h2.41v1.62H17.7V25h2.41v4h1.61V25h1.62v4H25V25h2.41V23.37H25V21.75h2.41V20.14H25V18.53Zm-4,4.84H21.72V21.75h1.62Zm0-3.23H21.72V18.53h1.62Z"/><rect class="cls-2" x="14.47" y="22.56" width="3.22" height="7.25"/><rect class="cls-2" x="27.36" y="22.56" width="3.22" height="7.25"/></g></g></g></svg>