<svg xmlns="http://www.w3.org/2000/svg" viewBox="0 0 40 40"><defs><style>.cls-1{fill:#2c2830;}.cls-2{fill:#fff;}</style></defs><title>development_map</title><g id="Layer_2" data-name="Layer 2"><g id="Layer_1-2" data-name="Layer 1"><g id="development_map"><circle class="cls-1" cx="20" cy="20" r="20"/><polygon class="cls-1" points="20.29 40 40 40 40 18.92 25.19 27.58 20.29 40"/><path class="cls-2" d="M23.09,13.32v11.2h-7V13.32h7m1.4-1.4h-9.8v14h9.8v-14Z"/><path class="cls-2" d="M23.79,16.12v-1.4h-2.1v-2.1h-1.4v2.1h-1.4v-2.1h-1.4v2.1h-2.1v1.4h2.1v1.4h-2.1v1.4h2.1v1.4h-2.1v1.4h2.1v3.5h1.4v-3.5h1.4v3.5h1.4v-3.5h2.1v-1.4h-2.1v-1.4h2.1v-1.4h-2.1v-1.4Zm-3.5,4.2h-1.4v-1.4h1.4Zm0-2.8h-1.4v-1.4h1.4Z"/><rect class="cls-2" x="12.59" y="19.62" width="2.8" height="6.3"/><rect class="cls-2" x="23.79" y="19.62" width="2.8" height="6.3"/></g></g></g></svg>