<svg xmlns="http://www.w3.org/2000/svg" viewBox="0 0 53.06 52.55"><defs><style>.cls-1{fill:#2577bd;}.cls-2{fill:#fff;}.cls-3{fill:#ea6945;}</style></defs><title>development_map_active_marked</title><g id="Layer_2" data-name="Layer 2"><g id="Layer_1-2" data-name="Layer 1"><g id="development_map_active_marked"><circle class="cls-1" cx="22.74" cy="29.81" r="22.74"/><polygon class="cls-1" points="23.07 52.55 45.48 52.55 45.48 28.58 28.64 38.42 23.07 52.55"/><path class="cls-2" d="M26.26,22.2V35h-8V22.2h8m1.59-1.59H16.7V36.54H27.85V20.61Z"/><path class="cls-2" d="M27.05,25.39V23.8H24.66V21.41H23.07V23.8H21.48V21.41H19.89V23.8H17.5v1.59h2.39V27H17.5v1.59h2.39v1.6H17.5v1.59h2.39v4h1.59v-4h1.59v4h1.59v-4h2.39V30.17H24.66v-1.6h2.39V27H24.66V25.39Zm-4,4.78H21.48v-1.6h1.59Zm0-3.19H21.48V25.39h1.59Z"/><rect class="cls-2" x="14.31" y="29.37" width="3.19" height="7.17"/><rect class="cls-2" x="27.05" y="29.37" width="3.19" height="7.17"/><circle class="cls-3" cx="41.68" cy="11.38" r="11.38"/><polygon class="cls-2" points="45.72 7.87 40.16 12.43 37.62 10.56 36.6 11.66 39.74 15.31 40.29 15.95 40.86 15.33 46.75 8.97 45.72 7.87"/></g></g></g></svg>