<svg xmlns="http://www.w3.org/2000/svg" viewBox="0 0 32 32"><defs><style>.cls-1{fill:#2c2830;}</style></defs><title>development</title><g id="Layer_2" data-name="Layer 2"><g id="Layer_1-2" data-name="Layer 1"><g id="development"><path class="cls-1" d="M24,3.2V28.8H8V3.2H24M27.2,0H4.8V32H27.2V0Z"/><path class="cls-1" d="M25.6,9.6V6.4H20.8V1.6H17.6V6.4H14.4V1.6H11.2V6.4H6.4V9.6h4.8v3.2H6.4V16h4.8v3.2H6.4v3.2h4.8v8h3.2v-8h3.2v8h3.2v-8h4.8V19.2H20.8V16h4.8V12.8H20.8V9.6Zm-8,9.6H14.4V16h3.2Zm0-6.4H14.4V9.6h3.2Z"/><rect class="cls-1" y="17.6" width="6.4" height="14.4"/><rect class="cls-1" x="25.6" y="17.6" width="6.4" height="14.4"/></g></g></g></svg>