<svg xmlns="http://www.w3.org/2000/svg" viewBox="0 0 32 33.75"><defs><style>.cls-1{fill:#2c2830;}</style></defs><title>energy</title><g id="Layer_2" data-name="Layer 2"><g id="Layer_1-2" data-name="Layer 1"><g id="energy"><path class="cls-1" d="M13.47,30.38h-.22L11.79,8.48H3.37L1.91,30.38H1.68a1.69,1.69,0,0,0,0,3.37H13.47a1.69,1.69,0,1,0,0-3.37Z"/><path class="cls-1" d="M28.63,30.38h-.3L27,15.22H18.53L17.15,30.38h-.31a1.69,1.69,0,0,0,0,3.37H28.63a1.69,1.69,0,1,0,0-3.37Z"/><path class="cls-1" d="M32,.2A11.9,11.9,0,0,0,30.32.06,5.72,5.72,0,0,0,27.9.82l-.9.43a6.85,6.85,0,0,1-1-.43A5.77,5.77,0,0,0,23.58.06a5.77,5.77,0,0,0-2.42.76c-.3.15-.81.4-.9.43a6.85,6.85,0,0,1-1-.43A5.72,5.72,0,0,0,16.84.06a5.77,5.77,0,0,0-2.42.76,7.78,7.78,0,0,1-.93.42A6.43,6.43,0,0,1,12.12.73,8.51,8.51,0,0,0,10.44.1,4.32,4.32,0,0,0,6.78,1,4.71,4.71,0,0,0,5.05,4.59V6H8.42V4.59a1.28,1.28,0,0,1,.48-1,1,1,0,0,1,.82-.21,7.49,7.49,0,0,1,1,.41,7,7,0,0,0,2.73.81,5.72,5.72,0,0,0,2.42-.76l.9-.42a5.87,5.87,0,0,1,1,.42,5.63,5.63,0,0,0,2.42.76,5.77,5.77,0,0,0,2.42-.76c.3-.14.81-.39.9-.42a5.87,5.87,0,0,1,1,.42A5.72,5.72,0,0,0,27,4.61a5.77,5.77,0,0,0,2.42-.76,7.39,7.39,0,0,1,.95-.42,8,8,0,0,1,1.68.2Z"/><path class="cls-1" d="M32,6.8a5.77,5.77,0,0,0-2.42.76,7.92,7.92,0,0,1-.94.42,6.58,6.58,0,0,1-1.36-.52,11.9,11.9,0,0,0-1.5-.58l-.18,0a4.32,4.32,0,0,0-3.66.89,4.68,4.68,0,0,0-1.73,3.61V12.7h3.37V11.33a1.29,1.29,0,0,1,.47-1,1,1,0,0,1,.8-.22h0a9.1,9.1,0,0,1,1,.42,7,7,0,0,0,2.73.81,5.77,5.77,0,0,0,2.42-.76,8.06,8.06,0,0,1,.95-.42Z"/></g></g></g></svg>