<svg xmlns="http://www.w3.org/2000/svg" viewBox="0 0 46 46"><defs><style>.cls-1{fill:#2577bd;}.cls-2{fill:#fff;}</style></defs><title>energy_map_active</title><g id="Layer_2" data-name="Layer 2"><g id="Layer_1-2" data-name="Layer 1"><g id="energy_map_active"><circle class="cls-1" cx="23" cy="23" r="23"/><polygon class="cls-1" points="23.34 46 46 46 46 21.75 28.97 31.72 23.34 46"/><path class="cls-2" d="M21.94,29.61h-.11l-.69-10.45h-4l-.7,10.45h-.1a.8.8,0,1,0,0,1.6h5.62a.8.8,0,1,0,0-1.6Z"/><path class="cls-2" d="M29.17,29.61H29l-.66-7.23h-4l-.66,7.23h-.14a.8.8,0,0,0,0,1.6h5.62a.8.8,0,1,0,0-1.6Z"/><path class="cls-2" d="M30.78,15.21a7.2,7.2,0,0,0-.8-.07,2.78,2.78,0,0,0-1.16.37l-.43.2a3.9,3.9,0,0,1-.47-.2,2.82,2.82,0,0,0-1.16-.37,2.78,2.78,0,0,0-1.15.37l-.43.2a4,4,0,0,1-.48-.2,2.73,2.73,0,0,0-1.15-.37,2.82,2.82,0,0,0-1.16.37l-.44.2a3.37,3.37,0,0,1-.65-.25,4,4,0,0,0-.81-.3,2.07,2.07,0,0,0-1.74.42,2.25,2.25,0,0,0-.83,1.72V18h1.61V17.3a.63.63,0,0,1,.23-.47.46.46,0,0,1,.39-.1,3,3,0,0,1,.49.2,3.48,3.48,0,0,0,1.3.38A2.67,2.67,0,0,0,23.1,17a4.43,4.43,0,0,1,.43-.2A2.76,2.76,0,0,1,24,17a2.63,2.63,0,0,0,1.16.36A2.63,2.63,0,0,0,26.31,17l.43-.2a3.26,3.26,0,0,1,.48.2,2.59,2.59,0,0,0,1.15.36A2.59,2.59,0,0,0,29.52,17a3.76,3.76,0,0,1,.46-.2,3.08,3.08,0,0,1,.8.1Z"/><path class="cls-2" d="M30.78,18.36a2.59,2.59,0,0,0-1.15.36l-.45.2a2.83,2.83,0,0,1-.65-.25,4.44,4.44,0,0,0-.72-.27l-.09,0a2.1,2.1,0,0,0-1.74.42,2.24,2.24,0,0,0-.82,1.73v.65h1.6v-.65a.6.6,0,0,1,.23-.47.47.47,0,0,1,.38-.11h0a4.19,4.19,0,0,1,.49.2,3.32,3.32,0,0,0,1.3.39,2.81,2.81,0,0,0,1.16-.36,3.1,3.1,0,0,1,.45-.21Z"/></g></g></g></svg>