<svg xmlns="http://www.w3.org/2000/svg" viewBox="0 0 47 45.19"><defs><style>.cls-1{fill:#2c2830;}.cls-2{fill:#fff;}.cls-3{fill:#ea6945;}</style></defs><title>energy_map_marked</title><g id="Layer_2" data-name="Layer 2"><g id="Layer_1-2" data-name="Layer 1"><g id="energy_map_marked"><circle class="cls-1" cx="20" cy="25.19" r="20"/><polygon class="cls-1" points="20.29 45.19 40 45.19 40 24.11 25.19 32.77 20.29 45.19"/><path class="cls-2" d="M19.08,30.94H19l-.61-9.09H14.89l-.61,9.09h-.09a.7.7,0,0,0,0,1.4h4.89a.7.7,0,0,0,0-1.4Z"/><path class="cls-2" d="M25.37,30.94h-.13l-.57-6.29H21.18l-.58,6.29h-.12a.7.7,0,0,0,0,1.4h4.89a.7.7,0,0,0,0-1.4Z"/><path class="cls-2" d="M26.77,18.42a4.23,4.23,0,0,0-.7-.06,2.4,2.4,0,0,0-1,.32l-.37.17a2.09,2.09,0,0,1-.41-.17,2.4,2.4,0,0,0-1-.32,2.35,2.35,0,0,0-1,.32l-.38.17a2.09,2.09,0,0,1-.41-.17,2.4,2.4,0,0,0-1-.32,2.4,2.4,0,0,0-1,.32,3.52,3.52,0,0,1-.39.17,2.92,2.92,0,0,1-.56-.21,3.7,3.7,0,0,0-.7-.26,1.78,1.78,0,0,0-1.52.36,1.94,1.94,0,0,0-.71,1.5v.57H17v-.57a.54.54,0,0,1,.2-.41.42.42,0,0,1,.34-.09,3.2,3.2,0,0,1,.43.17,3,3,0,0,0,1.13.34,2.35,2.35,0,0,0,1-.32l.38-.17a2.09,2.09,0,0,1,.41.17,2.4,2.4,0,0,0,1,.32,2.4,2.4,0,0,0,1-.32l.37-.17a2.47,2.47,0,0,1,.42.17,2.35,2.35,0,0,0,1,.32,2.35,2.35,0,0,0,1-.32l.4-.17a3.34,3.34,0,0,1,.7.08Z"/><path class="cls-2" d="M26.77,21.16a2.25,2.25,0,0,0-1,.31,3.52,3.52,0,0,1-.39.18,3.83,3.83,0,0,1-.56-.22,3.61,3.61,0,0,0-.62-.24l-.08,0a1.78,1.78,0,0,0-1.52.37A2,2,0,0,0,21.87,23v.57h1.4V23a.54.54,0,0,1,.2-.41.43.43,0,0,1,.33-.09h0a3.12,3.12,0,0,1,.42.18,3,3,0,0,0,1.14.33,2.38,2.38,0,0,0,1-.31,2.87,2.87,0,0,1,.4-.18Z"/><circle class="cls-3" cx="37" cy="10" r="10"/><polygon class="cls-2" points="40.55 6.92 35.67 10.92 33.44 9.28 32.54 10.25 35.3 13.45 35.78 14.02 36.29 13.47 41.46 7.88 40.55 6.92"/></g></g></g></svg>