<svg xmlns="http://www.w3.org/2000/svg" viewBox="0 0 53.1 51.07"><defs><style>.cls-1{fill:#2577bd;}.cls-2{fill:#fff;}.cls-3{fill:#ea6945;}</style></defs><title>energy_map_active_marked</title><g id="Layer_2" data-name="Layer 2"><g id="Layer_1-2" data-name="Layer 1"><g id="energy_map_active_marked"><circle class="cls-1" cx="22.55" cy="28.51" r="22.55"/><polygon class="cls-1" points="22.88 51.06 45.11 51.06 45.11 27.29 28.41 37.06 22.88 51.06"/><path class="cls-2" d="M21.52,35h-.11l-.68-10.24H16.79L16.11,35H16a.79.79,0,1,0,0,1.58h5.52a.79.79,0,0,0,0-1.58Z"/><path class="cls-2" d="M28.61,35h-.15l-.64-7.09H23.88L23.23,35h-.14a.79.79,0,1,0,0,1.58h5.52a.79.79,0,0,0,0-1.58Z"/><path class="cls-2" d="M30.18,20.87a5.16,5.16,0,0,0-.79-.06,2.71,2.71,0,0,0-1.13.35l-.42.2a2.76,2.76,0,0,1-.47-.2,2.62,2.62,0,0,0-1.13-.35,2.67,2.67,0,0,0-1.13.35l-.42.2a2.76,2.76,0,0,1-.47-.2,2.62,2.62,0,0,0-1.13-.35,2.67,2.67,0,0,0-1.13.35,3.49,3.49,0,0,1-.44.2,3.81,3.81,0,0,1-.64-.24,5.24,5.24,0,0,0-.78-.3,2,2,0,0,0-1.71.42,2.17,2.17,0,0,0-.81,1.69v.64h1.57v-.64a.62.62,0,0,1,.22-.47.54.54,0,0,1,.39-.1,4.89,4.89,0,0,1,.48.2,3.33,3.33,0,0,0,1.28.38,2.88,2.88,0,0,0,1.13-.36l.42-.2a3.9,3.9,0,0,1,.47.2,2.78,2.78,0,0,0,1.13.36,2.83,2.83,0,0,0,1.13-.36l.42-.2a3.9,3.9,0,0,1,.47.2,2.78,2.78,0,0,0,1.13.36A2.83,2.83,0,0,0,29,22.58l.44-.2a4.17,4.17,0,0,1,.79.1Z"/><path class="cls-2" d="M30.18,24a2.67,2.67,0,0,0-1.13.35,3.49,3.49,0,0,1-.44.2,3.81,3.81,0,0,1-.64-.24,4.22,4.22,0,0,0-.7-.27l-.08,0a2,2,0,0,0-1.71.42,2.17,2.17,0,0,0-.81,1.69v.64h1.57v-.64a.59.59,0,0,1,.23-.46.45.45,0,0,1,.37-.11h0a4.89,4.89,0,0,1,.48.2,3.33,3.33,0,0,0,1.28.38,2.68,2.68,0,0,0,1.13-.36,3.43,3.43,0,0,1,.44-.19Z"/><circle class="cls-3" cx="41.72" cy="11.38" r="11.38"/><polygon class="cls-2" points="45.76 7.87 40.21 12.43 37.67 10.56 36.65 11.66 39.78 15.31 40.34 15.95 40.91 15.33 46.8 8.97 45.76 7.87"/></g></g></g></svg>