<svg xmlns="http://www.w3.org/2000/svg" viewBox="0 0 40 40"><defs><style>.cls-1{fill:#2c2830;}.cls-2{fill:#fff;}</style></defs><title>energy_map</title><g id="Layer_2" data-name="Layer 2"><g id="Layer_1-2" data-name="Layer 1"><g id="energy_map"><circle class="cls-1" cx="20" cy="20" r="20"/><polygon class="cls-1" points="20.29 40 40 40 40 18.92 25.19 27.58 20.29 40"/><path class="cls-2" d="M19.08,25.74H19l-.61-9.08H14.89l-.61,9.08h-.09a.7.7,0,0,0,0,1.4h4.89a.7.7,0,0,0,0-1.4Z"/><path class="cls-2" d="M25.37,25.74h-.13l-.57-6.28H21.18l-.58,6.28h-.12a.7.7,0,0,0,0,1.4h4.89a.7.7,0,1,0,0-1.4Z"/><path class="cls-2" d="M26.77,13.23a4.23,4.23,0,0,0-.7-.06,2.38,2.38,0,0,0-1,.31l-.37.18a3,3,0,0,1-.41-.18,2.38,2.38,0,0,0-1-.31,2.34,2.34,0,0,0-1,.31l-.38.18a3,3,0,0,1-.41-.18,2.38,2.38,0,0,0-1-.31,2.38,2.38,0,0,0-1,.31,2.32,2.32,0,0,1-.39.18,3,3,0,0,1-.56-.22,4.54,4.54,0,0,0-.7-.26,1.82,1.82,0,0,0-1.52.37,1.91,1.91,0,0,0-.71,1.5v.56H17v-.56a.54.54,0,0,1,.2-.41.39.39,0,0,1,.34-.09,2.26,2.26,0,0,1,.43.17,3,3,0,0,0,1.13.34,2.35,2.35,0,0,0,1-.32l.38-.18a3,3,0,0,1,.41.18,2.4,2.4,0,0,0,1,.32,2.4,2.4,0,0,0,1-.32l.37-.18a3.79,3.79,0,0,1,.42.18,2.35,2.35,0,0,0,1,.32,2.35,2.35,0,0,0,1-.32,2.83,2.83,0,0,1,.4-.17,3.34,3.34,0,0,1,.7.08Z"/><path class="cls-2" d="M26.77,16a2.4,2.4,0,0,0-1,.32,3.52,3.52,0,0,1-.39.17,2.92,2.92,0,0,1-.56-.21,3.61,3.61,0,0,0-.62-.24l-.08,0a1.81,1.81,0,0,0-1.52.36,2,2,0,0,0-.72,1.5v.57h1.4v-.57a.54.54,0,0,1,.2-.41.39.39,0,0,1,.33-.09h0l.42.17a2.85,2.85,0,0,0,1.14.34,2.54,2.54,0,0,0,1-.31,2.87,2.87,0,0,1,.4-.18Z"/></g></g></g></svg>