<svg xmlns="http://www.w3.org/2000/svg" viewBox="0 0 52.87 50.16"><defs><style>.cls-1{fill:#2577bd;}.cls-2{fill:#fff;}.cls-3{fill:#ea6945;}</style></defs><title>environment_map_active_marked</title><g id="Layer_2" data-name="Layer 2"><g id="Layer_1-2" data-name="Layer 1"><g id="environment_map_active_marked"><circle class="cls-1" cx="22.89" cy="27.28" r="22.89"/><polygon class="cls-1" points="23.22 50.16 45.77 50.16 45.77 26.04 28.83 35.95 23.22 50.16"/><path class="cls-2" d="M30.56,33l-3.34-3.7h1.25a.44.44,0,0,0,.44-.45.39.39,0,0,0-.11-.29l-3.24-3.71h1.16a.44.44,0,0,0,.44-.45.42.42,0,0,0-.1-.28l-3.84-4.61-3.84,4.61a.44.44,0,0,0,.05.62.46.46,0,0,0,.29.11h1.16l-3.24,3.71a.44.44,0,0,0,.33.74h1.24L15.88,33a.44.44,0,0,0,0,.63.42.42,0,0,0,.3.12h14a.45.45,0,0,0,.45-.45A.44.44,0,0,0,30.56,33Z"/><rect class="cls-2" x="22.33" y="24.82" width="1.78" height="10.68"/><circle class="cls-3" cx="41.49" cy="11.38" r="11.38"/><polygon class="cls-2" points="45.52 7.87 39.97 12.43 37.43 10.56 36.41 11.66 39.55 15.31 40.1 15.95 40.67 15.33 46.56 8.97 45.52 7.87"/></g></g></g></svg>