<svg xmlns="http://www.w3.org/2000/svg" viewBox="0 0 40 40"><defs><style>.cls-1{fill:#2577bd;}.cls-2{fill:#fff;}</style></defs><title>environment_map_selected</title><g id="Layer_2" data-name="Layer 2"><g id="Layer_1-2" data-name="Layer 1"><g id="environment_map_selected"><circle class="cls-1" cx="20" cy="20" r="20"/><polygon class="cls-1" points="20.29 40 40 40 40 18.92 25.19 27.58 20.29 40"/><path class="cls-2" d="M26.71,25l-2.92-3.24h1.09a.4.4,0,0,0,.39-.39.42.42,0,0,0-.1-.26l-2.84-3.24h1a.39.39,0,0,0,.39-.39.38.38,0,0,0-.09-.25l-3.36-4-3.36,4a.4.4,0,0,0,.05.55.38.38,0,0,0,.25.09h1l-2.84,3.24a.4.4,0,0,0,.29.65h1.09L13.87,25a.39.39,0,0,0,0,.55.42.42,0,0,0,.26.1H26.42a.39.39,0,0,0,.29-.65Z"/><rect class="cls-2" x="19.51" y="17.85" width="1.56" height="9.33"/></g></g></g></svg>