<svg xmlns="http://www.w3.org/2000/svg" viewBox="0 0 29.79 32"><defs><style>.cls-1{fill:#2c2830;}</style></defs><title>environment</title><g id="Layer_2" data-name="Layer 2"><g id="Layer_1-2" data-name="Layer 1"><g id="environment"><path class="cls-1" d="M29.56,27l-6.67-7.4h2.49a.89.89,0,0,0,.67-1.48l-6.49-7.41h2.32a.89.89,0,0,0,.89-.89.9.9,0,0,0-.2-.57L14.89,0,7.22,9.21a.89.89,0,0,0,.11,1.25.91.91,0,0,0,.57.21h2.33L3.74,18.08a.89.89,0,0,0,.67,1.48H6.89L.23,27a.9.9,0,0,0,.06,1.26.94.94,0,0,0,.6.22h28a.88.88,0,0,0,.89-.88A.93.93,0,0,0,29.56,27Z"/><rect class="cls-1" x="13.12" y="10.67" width="3.56" height="21.33"/></g></g></g></svg>