<svg xmlns="http://www.w3.org/2000/svg" viewBox="0 0 46.31 43.89"><defs><style>.cls-1{fill:#2c2830;}.cls-2{fill:#fff;}.cls-3{fill:#ea6945;}</style></defs><title>environment_map_marked</title><g id="Layer_2" data-name="Layer 2"><g id="Layer_1-2" data-name="Layer 1"><g id="environment_map_marked"><circle class="cls-1" cx="20" cy="23.89" r="20"/><polygon class="cls-1" points="20.29 43.89 40 43.89 40 22.81 25.19 31.47 20.29 43.89"/><path class="cls-2" d="M26.71,28.87l-2.92-3.24h1.09a.39.39,0,0,0,.39-.39.44.44,0,0,0-.1-.26l-2.84-3.24h1a.39.39,0,0,0,.39-.39.38.38,0,0,0-.09-.25l-3.36-4-3.36,4a.4.4,0,0,0,.05.55.38.38,0,0,0,.25.09h1L15.41,25a.39.39,0,0,0,0,.55.35.35,0,0,0,.25.1h1.09l-2.92,3.24a.39.39,0,0,0,0,.55.42.42,0,0,0,.26.1H26.42a.39.39,0,0,0,.29-.65Z"/><rect class="cls-2" x="19.51" y="21.74" width="1.56" height="9.33"/><circle class="cls-3" cx="36.31" cy="10" r="10"/><polygon class="cls-2" points="39.86 6.92 34.98 10.92 32.75 9.28 31.86 10.25 34.61 13.45 35.09 14.02 35.6 13.47 40.77 7.88 39.86 6.92"/></g></g></g></svg>