<svg xmlns="http://www.w3.org/2000/svg" viewBox="0 0 46 46"><defs><style>.cls-1{fill:#2577bd;}.cls-2{fill:#fff;}</style></defs><title>environment_map_active</title><g id="Layer_2" data-name="Layer 2"><g id="Layer_1-2" data-name="Layer 1"><g id="environment_map_active"><circle class="cls-1" cx="23" cy="23" r="23"/><polygon class="cls-1" points="23.34 46 46 46 46 21.75 28.97 31.72 23.34 46"/><path class="cls-2" d="M30.71,28.72,27.36,25h1.25a.45.45,0,0,0,.45-.45.44.44,0,0,0-.11-.29l-3.27-3.73h1.17a.45.45,0,0,0,.45-.45.46.46,0,0,0-.11-.29l-3.86-4.63-3.86,4.63a.45.45,0,0,0,.06.63.44.44,0,0,0,.29.11H21l-3.27,3.73a.45.45,0,0,0,0,.63.48.48,0,0,0,.3.11h1.25L16,28.72a.46.46,0,0,0,0,.64.46.46,0,0,0,.3.11H30.38a.45.45,0,0,0,.45-.45A.44.44,0,0,0,30.71,28.72Z"/><rect class="cls-2" x="22.44" y="20.53" width="1.79" height="10.73"/></g></g></g></svg>