<svg xmlns="http://www.w3.org/2000/svg" viewBox="0 0 22.4 32"><defs><style>.cls-1{fill:#2c2830;}</style></defs><title>finance</title><g id="Layer_2" data-name="Layer 2"><g id="Layer_1-2" data-name="Layer 1"><g id="finance"><path class="cls-1" d="M15.2,14.4H12.87v-8H15.2a4,4,0,0,1,4,4h3.2a7.21,7.21,0,0,0-7.2-7.2H12.87V0H9.67V3.2H7.2a7.2,7.2,0,0,0,0,14.4H9.67v8H7.2a4,4,0,0,1-4-4H0a7.21,7.21,0,0,0,7.2,7.2H9.67V32h3.2V28.8H15.2a7.2,7.2,0,0,0,0-14.4Zm-8,0a4,4,0,0,1,0-8H9.67v8Zm8,11.2H12.87v-8H15.2a4,4,0,0,1,0,8Z"/></g></g></g></svg>