<svg xmlns="http://www.w3.org/2000/svg" viewBox="0 0 46.59 45.67"><defs><style>.cls-1{fill:#2577bd;}.cls-2{fill:#fff;}.cls-3{fill:#ea6945;}</style></defs><title>finance_map_selected_marked</title><g id="Layer_2" data-name="Layer 2"><g id="Layer_1-2" data-name="Layer 1"><g id="finance_map_selected_marked"><circle class="cls-1" cx="20" cy="25.67" r="20"/><polygon class="cls-1" points="20.29 45.67 40 45.67 40 24.58 25.19 33.24 20.29 45.67"/><path class="cls-2" d="M22,25.46H21V22h1a1.75,1.75,0,0,1,1.75,1.75h1.4A3.15,3.15,0,0,0,22,20.56H21v-1.4h-1.4v1.4H18.53a3.15,3.15,0,0,0,0,6.3h1.08v3.5H18.53a1.75,1.75,0,0,1-1.75-1.75h-1.4a3.16,3.16,0,0,0,3.15,3.15h1.08v1.4H21v-1.4h1a3.15,3.15,0,0,0,0-6.3Zm-3.5,0a1.75,1.75,0,0,1,0-3.5h1.08v3.5Zm3.5,4.9H21v-3.5h1a1.75,1.75,0,0,1,0,3.5Z"/><circle class="cls-3" cx="36.59" cy="10" r="10"/><polygon class="cls-2" points="40.14 6.92 35.26 10.92 33.03 9.28 32.13 10.25 34.89 13.45 35.37 14.02 35.88 13.47 41.05 7.88 40.14 6.92"/></g></g></g></svg>