<svg xmlns="http://www.w3.org/2000/svg" viewBox="0 0 53 51.95"><defs><style>.cls-1{fill:#2577bd;}.cls-2{fill:#fff;}.cls-3{fill:#ea6945;}</style></defs><title>finance_map_active_marked</title><g id="Layer_2" data-name="Layer 2"><g id="Layer_1-2" data-name="Layer 1"><g id="finance_map_active_marked"><circle class="cls-1" cx="22.75" cy="29.2" r="22.75"/><polygon class="cls-1" points="23.08 51.95 45.5 51.95 45.5 27.97 28.66 37.82 23.08 51.95"/><path class="cls-2" d="M25.06,29H23.9V25h1.16a2,2,0,0,1,2,2h1.59a3.59,3.59,0,0,0-3.58-3.58H23.9V21.8H22.31v1.59H21.08a3.59,3.59,0,1,0,0,7.17h1.23v4H21.08a2,2,0,0,1-2-2h-1.6a3.59,3.59,0,0,0,3.59,3.58h1.23v1.59H23.9V36.13h1.16a3.59,3.59,0,0,0,0-7.17Zm-4,0a2,2,0,1,1,0-4h1.23v4Zm4,5.58H23.9v-4h1.16a2,2,0,1,1,0,4Z"/><circle class="cls-3" cx="41.62" cy="11.38" r="11.38"/><polygon class="cls-2" points="45.66 7.87 40.11 12.43 37.57 10.56 36.55 11.66 39.69 15.31 40.24 15.95 40.81 15.33 46.7 8.97 45.66 7.87"/></g></g></g></svg>