<svg xmlns="http://www.w3.org/2000/svg" viewBox="0 0 46 46"><defs><style>.cls-1{fill:#2577bd;}.cls-2{fill:#fff;}</style></defs><title>finance_map_active</title><g id="Layer_2" data-name="Layer 2"><g id="Layer_1-2" data-name="Layer 1"><g id="finance_map_active"><circle class="cls-1" cx="23" cy="23" r="23"/><polygon class="cls-1" points="23.34 46 46 46 46 21.75 28.97 31.72 23.34 46"/><path class="cls-2" d="M25.33,22.76H24.16v-4h1.17a2,2,0,0,1,2,2H29a3.63,3.63,0,0,0-3.63-3.62H24.16V15.52H22.55v1.61H21.31a3.62,3.62,0,0,0,0,7.24h1.24v4H21.31a2,2,0,0,1-2-2H17.69A3.63,3.63,0,0,0,21.31,30h1.24v1.61h1.61V30h1.17a3.63,3.63,0,1,0,0-7.25Zm-4,0a2,2,0,1,1,0-4h1.24v4Zm4,5.64H24.16v-4h1.17a2,2,0,1,1,0,4Z"/></g></g></g></svg>