<svg xmlns="http://www.w3.org/2000/svg" viewBox="0 0 40 40"><defs><style>.cls-1{fill:#2c2830;}.cls-2{fill:#fff;}</style></defs><title>finance_map</title><g id="Layer_2" data-name="Layer 2"><g id="Layer_1-2" data-name="Layer 1"><g id="finance_map"><circle class="cls-1" cx="20" cy="20" r="20"/><polygon class="cls-1" points="20.29 40 40 40 40 18.92 25.19 27.58 20.29 40"/><path class="cls-2" d="M22,19.79H21v-3.5h1A1.76,1.76,0,0,1,23.78,18h1.4A3.16,3.16,0,0,0,22,14.89H21v-1.4h-1.4v1.4H18.53a3.15,3.15,0,1,0,0,6.3h1.08v3.5H18.53a1.75,1.75,0,0,1-1.75-1.75h-1.4a3.15,3.15,0,0,0,3.15,3.15h1.08v1.4H21v-1.4h1a3.15,3.15,0,0,0,0-6.3Zm-3.5,0a1.75,1.75,0,0,1,0-3.5h1.08v3.5Zm3.5,4.9H21v-3.5h1a1.75,1.75,0,0,1,0,3.5Z"/></g></g></g></svg>