<svg xmlns="http://www.w3.org/2000/svg" viewBox="0 0 46.59 44.91"><defs><style>.cls-1{fill:#2577bd;}.cls-2{fill:#fff;}.cls-3{fill:#ea6945;}</style></defs><title>healthcare_map_selected_marked</title><g id="Layer_2" data-name="Layer 2"><g id="Layer_1-2" data-name="Layer 1"><g id="healthcare_map_selected_marked"><circle class="cls-1" cx="20" cy="24.91" r="20"/><polygon class="cls-1" points="20.29 44.91 40 44.91 40 23.83 25.19 32.49 20.29 44.91"/><path class="cls-2" d="M21.62,19.42v4.2h4.2v2.8h-4.2v4.2h-2.8v-4.2h-4.2v-2.8h4.2v-4.2h2.8m0-1.4h-2.8a1.4,1.4,0,0,0-1.4,1.4v2.8h-2.8a1.4,1.4,0,0,0-1.4,1.4v2.8a1.4,1.4,0,0,0,1.4,1.4h2.8v2.8a1.4,1.4,0,0,0,1.4,1.4h2.8a1.4,1.4,0,0,0,1.4-1.4v-2.8h2.8a1.4,1.4,0,0,0,1.4-1.4v-2.8a1.4,1.4,0,0,0-1.4-1.4H23v-2.8A1.4,1.4,0,0,0,21.62,18Z"/><circle class="cls-3" cx="36.59" cy="10" r="10"/><polygon class="cls-2" points="40.14 6.92 35.26 10.92 33.03 9.28 32.13 10.25 34.89 13.45 35.37 14.02 35.88 13.47 41.05 7.88 40.14 6.92"/></g></g></g></svg>