<svg xmlns="http://www.w3.org/2000/svg" viewBox="0 0 40 40"><defs><style>.cls-1{fill:#2c2830;}.cls-2{fill:#fff;}</style></defs><title>healthcare_black</title><g id="Layer_2" data-name="Layer 2"><g id="Layer_1-2" data-name="Layer 1"><g id="healthcare_black"><circle class="cls-1" cx="20" cy="20" r="20"/><path class="cls-2" d="M21.62,14.51v4.2h4.2v2.8h-4.2v4.2h-2.8v-4.2h-4.2v-2.8h4.2v-4.2h2.8m0-1.4h-2.8a1.4,1.4,0,0,0-1.4,1.4v2.8h-2.8a1.4,1.4,0,0,0-1.4,1.4v2.8a1.4,1.4,0,0,0,1.4,1.4h2.8v2.8a1.4,1.4,0,0,0,1.4,1.4h2.8a1.4,1.4,0,0,0,1.4-1.4v-2.8h2.8a1.4,1.4,0,0,0,1.4-1.4v-2.8a1.4,1.4,0,0,0-1.4-1.4H23v-2.8A1.4,1.4,0,0,0,21.62,13.11Z"/></g></g></g></svg>