<svg xmlns="http://www.w3.org/2000/svg" viewBox="0 0 46 46"><defs><style>.cls-1{fill:#2577bd;}.cls-2{fill:#fff;}</style></defs><title>healthcare_map_active</title><g id="Layer_2" data-name="Layer 2"><g id="Layer_1-2" data-name="Layer 1"><g id="healthcare_map_active"><circle class="cls-1" cx="23" cy="23" r="23"/><polygon class="cls-1" points="23.34 46 46 46 46 21.75 28.97 31.72 23.34 46"/><path class="cls-2" d="M24.86,16.69v4.83h4.83v3.22H24.86v4.83H21.64V24.74H16.81V21.52h4.83V16.69h3.22m0-1.61H21.64A1.61,1.61,0,0,0,20,16.69v3.22H16.81a1.61,1.61,0,0,0-1.61,1.61v3.22a1.61,1.61,0,0,0,1.61,1.61H20v3.22a1.61,1.61,0,0,0,1.61,1.61h3.22a1.61,1.61,0,0,0,1.61-1.61V26.35h3.22a1.61,1.61,0,0,0,1.61-1.61V21.52a1.61,1.61,0,0,0-1.61-1.61H26.47V16.69A1.61,1.61,0,0,0,24.86,15.08Z"/></g></g></g></svg>