<svg xmlns="http://www.w3.org/2000/svg" viewBox="0 0 53.06 51.1"><defs><style>.cls-1{fill:#2577bd;}.cls-2{fill:#fff;}.cls-3{fill:#ea6945;}</style></defs><title>healthcare_map_active_marked</title><g id="Layer_2" data-name="Layer 2"><g id="Layer_1-2" data-name="Layer 1"><g id="healthcare_map_active_marked"><circle class="cls-1" cx="22.75" cy="28.34" r="22.75"/><polygon class="cls-1" points="23.08 51.09 45.5 51.09 45.5 27.11 28.66 36.97 23.08 51.09"/><path class="cls-2" d="M24.59,22.1v4.78h4.78v3.18H24.59v4.78H21.41V30.06H16.63V26.88h4.78V22.1h3.18m0-1.59H21.41a1.59,1.59,0,0,0-1.59,1.59v3.18H16.63A1.6,1.6,0,0,0,15,26.88v3.18a1.59,1.59,0,0,0,1.59,1.59h3.19v3.19a1.59,1.59,0,0,0,1.59,1.59h3.18a1.6,1.6,0,0,0,1.6-1.59V31.65h3.18A1.59,1.59,0,0,0,31,30.06V26.88a1.6,1.6,0,0,0-1.59-1.6H26.19V22.1A1.6,1.6,0,0,0,24.59,20.51Z"/><circle class="cls-3" cx="41.68" cy="11.38" r="11.38"/><polygon class="cls-2" points="45.72 7.87 40.17 12.43 37.63 10.56 36.61 11.66 39.74 15.31 40.29 15.95 40.87 15.33 46.75 8.97 45.72 7.87"/></g></g></g></svg>