<svg xmlns="http://www.w3.org/2000/svg" viewBox="0 0 32 32"><defs><style>.cls-1{fill:#2c2830;opacity:0.89;}</style></defs><title>healthcare</title><g id="Layer_2" data-name="Layer 2"><g id="Layer_1-2" data-name="Layer 1"><g id="healthcare"><path class="cls-1" d="M19.2,3.2v9.6h9.6v6.4H19.2v9.6H12.8V19.2H3.2V12.8h9.6V3.2h6.4m0-3.2H12.8A3.2,3.2,0,0,0,9.6,3.2V9.6H3.2A3.2,3.2,0,0,0,0,12.8v6.4a3.2,3.2,0,0,0,3.2,3.2H9.6v6.4A3.2,3.2,0,0,0,12.8,32h6.4a3.2,3.2,0,0,0,3.2-3.2V22.4h6.4A3.2,3.2,0,0,0,32,19.2V12.8a3.2,3.2,0,0,0-3.2-3.2H22.4V3.2A3.2,3.2,0,0,0,19.2,0Z"/></g></g></g></svg>