<svg xmlns="http://www.w3.org/2000/svg" viewBox="0 0 46 46"><defs><style>.cls-1{fill:#2577bd;}.cls-2{fill:#fff;}</style></defs><title>industry_map_active</title><g id="Layer_2" data-name="Layer 2"><g id="Layer_1-2" data-name="Layer 1"><g id="industry_map_active"><circle class="cls-1" cx="23" cy="23" r="23"/><polygon class="cls-1" points="23.34 46 46 46 46 21.75 28.97 31.72 23.34 46"/><path class="cls-2" d="M27.23,21.66V17.19l-4.47,4.47V17.19l-4.47,4.47V14.5H15.6V30.6H31.7V17.19Zm-8,7.15H17.39V27h1.79Zm0-3.57H17.39V23.45h1.79Zm3.58,3.57H21V27h1.79Zm0-3.57H21V23.45h1.79Zm3.58,3.57H24.55V27h1.79Zm0-3.57H24.55V23.45h1.79Zm3.57,3.57H28.13V27h1.78Zm0-3.57H28.13V23.45h1.78Z"/></g></g></g></svg>