<svg xmlns="http://www.w3.org/2000/svg" viewBox="0 0 53.53 50.75"><defs><style>.cls-1{fill:#2577bd;}.cls-2{fill:#fff;}.cls-3{fill:#ea6945;}</style></defs><title>industry_map_active_marked</title><g id="Layer_2" data-name="Layer 2"><g id="Layer_1-2" data-name="Layer 1"><g id="industry_map_active_marked"><circle class="cls-1" cx="22.55" cy="28.2" r="22.55"/><polygon class="cls-1" points="22.88 50.75 45.11 50.75 45.11 26.98 28.41 36.75 22.88 50.75"/><path class="cls-2" d="M26.7,26.88V22.5l-4.38,4.38V22.5l-4.39,4.38v-7H15.3V35.65H31.09V22.5Zm-7.89,7H17.05V32.15h1.76Zm0-3.51H17.05V28.64h1.76Zm3.51,3.51H20.56V32.15h1.76Zm0-3.51H20.56V28.64h1.76Zm3.5,3.51H24.07V32.15h1.75Zm0-3.51H24.07V28.64h1.75Zm3.51,3.51H27.58V32.15h1.75Zm0-3.51H27.58V28.64h1.75Z"/><circle class="cls-3" cx="42.15" cy="11.38" r="11.38"/><polygon class="cls-2" points="46.19 7.87 40.64 12.43 38.1 10.56 37.08 11.66 40.21 15.31 40.76 15.95 41.34 15.33 47.22 8.97 46.19 7.87"/></g></g></g></svg>