<svg xmlns="http://www.w3.org/2000/svg" viewBox="0 0 40 40"><defs><style>.cls-1{fill:#2577bd;}.cls-2{fill:#fff;}</style></defs><title>industry_map_selected</title><g id="Layer_2" data-name="Layer 2"><g id="Layer_1-2" data-name="Layer 1"><g id="industry_map_selected"><circle class="cls-1" cx="20" cy="20" r="20"/><polygon class="cls-1" points="20.29 40 40 40 40 18.92 25.19 27.58 20.29 40"/><path class="cls-2" d="M23.68,18.83V14.94l-3.89,3.89V14.94L15.9,18.83V12.61H13.57v14h14V14.94Zm-7,6.23H15.12V23.5h1.56Zm0-3.12H15.12V20.39h1.56Zm3.11,3.12H18.23V23.5h1.56Zm0-3.12H18.23V20.39h1.56Zm3.11,3.12H21.35V23.5H22.9Zm0-3.12H21.35V20.39H22.9ZM26,25.06H24.46V23.5H26Zm0-3.12H24.46V20.39H26Z"/></g></g></g></svg>