<svg xmlns="http://www.w3.org/2000/svg" viewBox="0 0 47 45.19"><defs><style>.cls-1{fill:#2577bd;}.cls-2{fill:#fff;}.cls-3{fill:#ea6945;}</style></defs><title>industry_map_selected_marked</title><g id="Layer_2" data-name="Layer 2"><g id="Layer_1-2" data-name="Layer 1"><g id="industry_map_selected_marked"><circle class="cls-1" cx="20" cy="25.19" r="20"/><polygon class="cls-1" points="20.29 45.19 40 45.19 40 24.11 25.19 32.77 20.29 45.19"/><path class="cls-2" d="M23.68,24V20.14L19.79,24V20.14L15.9,24V17.8H13.57v14h14V20.14Zm-7,6.22H15.12V28.69h1.56Zm0-3.11H15.12V25.58h1.56Zm3.11,3.11H18.23V28.69h1.56Zm0-3.11H18.23V25.58h1.56Zm3.11,3.11H21.35V28.69H22.9Zm0-3.11H21.35V25.58H22.9ZM26,30.25H24.46V28.69H26Zm0-3.11H24.46V25.58H26Z"/><circle class="cls-3" cx="37" cy="10" r="10"/><polygon class="cls-2" points="40.55 6.92 35.67 10.92 33.44 9.28 32.54 10.25 35.3 13.45 35.78 14.02 36.29 13.47 41.46 7.88 40.55 6.92"/></g></g></g></svg>