<svg xmlns="http://www.w3.org/2000/svg" viewBox="0 0 46 46"><defs><style>.cls-1{fill:#2577bd;}.cls-2{fill:#fff;}</style></defs><title>infotech_map_active</title><g id="Layer_2" data-name="Layer 2"><g id="Layer_1-2" data-name="Layer 1"><g id="infotech_map_active"><circle class="cls-1" cx="23" cy="23" r="23"/><polygon class="cls-1" points="23.34 46 46 46 46 21.75 28.97 31.72 23.34 46"/><path class="cls-2" d="M27.83,15.08H18.17a1.61,1.61,0,0,0-1.61,1.61V29.57a1.61,1.61,0,0,0,1.61,1.61h9.66a1.61,1.61,0,0,0,1.61-1.61V16.69A1.61,1.61,0,0,0,27.83,15.08Zm0,13.68H18.17V17.49h9.66Z"/><rect class="cls-2" x="20.58" y="22.32" width="1.61" height="4.83"/><rect class="cls-2" x="23.81" y="19.91" width="1.61" height="7.24"/></g></g></g></svg>