<svg xmlns="http://www.w3.org/2000/svg" viewBox="0 0 40 40"><defs><style>.cls-1{fill:#2577bd;}.cls-2{fill:#fff;}</style></defs><title>infotech_map_selected</title><g id="Layer_2" data-name="Layer 2"><g id="Layer_1-2" data-name="Layer 1"><g id="infotech_map_selected"><circle class="cls-1" cx="20" cy="20" r="20"/><polygon class="cls-1" points="20.29 40 40 40 40 18.92 25.19 27.58 20.29 40"/><path class="cls-2" d="M24.2,13.11H15.8a1.4,1.4,0,0,0-1.4,1.4v11.2a1.4,1.4,0,0,0,1.4,1.4h8.4a1.4,1.4,0,0,0,1.4-1.4V14.51A1.4,1.4,0,0,0,24.2,13.11Zm0,11.9H15.8v-9.8h8.4Z"/><rect class="cls-2" x="17.9" y="19.41" width="1.4" height="4.2"/><rect class="cls-2" x="20.7" y="17.31" width="1.4" height="6.3"/></g></g></g></svg>