<svg xmlns="http://www.w3.org/2000/svg" viewBox="0 0 46.59 45.26"><defs><style>.cls-1{fill:#2c2830;}.cls-2{fill:#fff;}.cls-3{fill:#ea6945;}</style></defs><title>infotech_map_marked</title><g id="Layer_2" data-name="Layer 2"><g id="Layer_1-2" data-name="Layer 1"><g id="infotech_map_marked"><circle class="cls-1" cx="20" cy="25.26" r="20"/><polygon class="cls-1" points="20.29 45.26 40 45.26 40 24.18 25.19 32.84 20.29 45.26"/><path class="cls-2" d="M24.2,18.37H15.8a1.4,1.4,0,0,0-1.4,1.4V31a1.4,1.4,0,0,0,1.4,1.4h8.4A1.4,1.4,0,0,0,25.6,31V19.77A1.4,1.4,0,0,0,24.2,18.37Zm0,11.9H15.8v-9.8h8.4Z"/><rect class="cls-2" x="17.9" y="24.67" width="1.4" height="4.2"/><rect class="cls-2" x="20.7" y="22.57" width="1.4" height="6.3"/><circle class="cls-3" cx="36.59" cy="10" r="10"/><polygon class="cls-2" points="40.14 6.92 35.26 10.92 33.03 9.28 32.13 10.25 34.89 13.45 35.37 14.02 35.88 13.47 41.05 7.88 40.14 6.92"/></g></g></g></svg>