<svg xmlns="http://www.w3.org/2000/svg" viewBox="0 0 53.06 51.49"><defs><style>.cls-1{fill:#2577bd;}.cls-2{fill:#fff;}.cls-3{fill:#ea6945;}</style></defs><title>infotech_map_active_marked</title><g id="Layer_2" data-name="Layer 2"><g id="Layer_1-2" data-name="Layer 1"><g id="infotech_map_active_marked"><circle class="cls-1" cx="22.75" cy="28.74" r="22.75"/><polygon class="cls-1" points="23.08 51.49 45.5 51.49 45.5 27.51 28.66 37.36 23.08 51.49"/><path class="cls-2" d="M27.53,20.9H18a1.6,1.6,0,0,0-1.59,1.6V35.24A1.59,1.59,0,0,0,18,36.83h9.56a1.59,1.59,0,0,0,1.59-1.59V22.5A1.6,1.6,0,0,0,27.53,20.9Zm0,13.54H18V23.29h9.56Z"/><rect class="cls-2" x="20.36" y="28.07" width="1.59" height="4.78"/><rect class="cls-2" x="23.55" y="25.68" width="1.59" height="7.17"/><circle class="cls-3" cx="41.68" cy="11.38" r="11.38"/><polygon class="cls-2" points="45.72 7.87 40.17 12.43 37.63 10.56 36.61 11.66 39.74 15.31 40.29 15.95 40.87 15.33 46.75 8.97 45.72 7.87"/></g></g></g></svg>