<svg xmlns="http://www.w3.org/2000/svg" viewBox="0 0 46 46"><defs><style>.cls-1{fill:#2577bd;}.cls-2{fill:#fff;}</style></defs><title>mining_map_active</title><g id="Layer_2" data-name="Layer 2"><g id="Layer_1-2" data-name="Layer 1"><g id="mining_map_active"><circle class="cls-1" cx="23" cy="23" r="23"/><polygon class="cls-1" points="23.34 46 46 46 46 21.75 28.97 31.72 23.34 46"/><path class="cls-2" d="M30.05,20.05l-2.84-6.31a.86.86,0,0,0-1.14-.43l-.08,0-2.08,1.2a.88.88,0,0,0-.32,1.18l.05.07,1.47,2L14.37,24l.86,1.49,10.88-6.28,1.57,2.17a.86.86,0,0,0,1.13.25l.89-.51A.87.87,0,0,0,30.05,20.05Z"/><rect class="cls-2" x="14.27" y="24.92" width="8.99" height="1.72" transform="matrix(0.29, -0.96, 0.96, 0.29, -11.32, 36.35)"/><rect class="cls-2" x="22.91" y="20.29" width="1.72" height="10.01" transform="translate(-6.32 7.98) rotate(-16.86)"/><rect class="cls-2" x="14.03" y="29.23" width="14.64" height="1.72"/></g></g></g></svg>