<svg xmlns="http://www.w3.org/2000/svg" viewBox="0 0 52.86 50.41"><defs><style>.cls-1{fill:#2577bd;}.cls-2{fill:#fff;}.cls-3{fill:#ea6945;}</style></defs><title>mining_map_active_marked</title><g id="Layer_2" data-name="Layer 2"><g id="Layer_1-2" data-name="Layer 1"><g id="mining_map_active_marked"><circle class="cls-1" cx="23.03" cy="27.38" r="23.03"/><polygon class="cls-1" points="23.37 50.41 46.06 50.41 46.06 26.13 29.01 36.1 23.37 50.41"/><path class="cls-2" d="M30.09,24.42,27.24,18.1a.86.86,0,0,0-1.14-.43l-.07,0-2.09,1.2a.86.86,0,0,0-.31,1.18l0,.07,1.47,2L14.39,28.4l.86,1.5,10.9-6.29,1.57,2.18a.86.86,0,0,0,1.13.24l.89-.51A.87.87,0,0,0,30.09,24.42Z"/><rect class="cls-2" x="14.29" y="29.3" width="9" height="1.72" transform="translate(-15.5 39.5) rotate(-73.32)"/><rect class="cls-2" x="22.94" y="24.67" width="1.72" height="10.02" transform="translate(-7.58 8.18) rotate(-16.86)"/><rect class="cls-2" x="14.05" y="33.61" width="14.66" height="1.72"/><circle class="cls-3" cx="41.48" cy="11.38" r="11.38"/><polygon class="cls-2" points="45.52 7.87 39.97 12.43 37.43 10.56 36.41 11.66 39.54 15.31 40.1 15.95 40.67 15.33 46.56 8.97 45.52 7.87"/></g></g></g></svg>