<svg xmlns="http://www.w3.org/2000/svg" viewBox="0 0 29.08 32"><defs><style>.cls-1{fill:#2c2830;}</style></defs><title>mining</title><g id="Layer_2" data-name="Layer 2"><g id="Layer_1-2" data-name="Layer 1"><g id="mining"><path class="cls-1" d="M28.94,12.31,23.8.92A1.54,1.54,0,0,0,21.74.14l-.13.07L17.85,2.38a1.55,1.55,0,0,0-.57,2.12.57.57,0,0,0,.08.13L20,8.31.62,19.5l1.55,2.69L21.83,10.85l2.83,3.93a1.55,1.55,0,0,0,2,.44l1.6-.92A1.56,1.56,0,0,0,28.94,12.31Z"/><rect class="cls-1" x="0.44" y="21.12" width="16.23" height="3.11" transform="matrix(0.29, -0.96, 0.96, 0.29, -15.62, 24.35)"/><rect class="cls-1" x="16.03" y="12.76" width="3.11" height="18.08" transform="translate(-5.57 6.04) rotate(-16.86)"/><rect class="cls-1" y="28.89" width="26.43" height="3.11"/></g></g></g></svg>