<svg xmlns="http://www.w3.org/2000/svg" viewBox="0 0 47.02 43.89"><defs><style>.cls-1{fill:#2577bd;}.cls-2{fill:#fff;}.cls-3{fill:#ea6945;}</style></defs><title>mining_map_selected_marked</title><g id="Layer_2" data-name="Layer 2"><g id="Layer_1-2" data-name="Layer 1"><g id="mining_map_selected_marked"><circle class="cls-1" cx="20" cy="23.89" r="20"/><polygon class="cls-1" points="20.29 43.89 40 43.89 40 22.81 25.19 31.47 20.29 43.89"/><path class="cls-2" d="M26.13,21.32l-2.47-5.48a.75.75,0,0,0-1-.38l-.07,0-1.81,1a.74.74,0,0,0-.27,1,.21.21,0,0,0,0,.06l1.27,1.78-9.34,5.38.75,1.3,9.47-5.46,1.36,1.89a.74.74,0,0,0,1,.21l.77-.44A.74.74,0,0,0,26.13,21.32Z"/><rect class="cls-2" x="12.41" y="25.56" width="7.82" height="1.5" transform="translate(-13.57 34.39) rotate(-73.32)"/><rect class="cls-2" x="19.92" y="21.54" width="1.5" height="8.7" transform="translate(-6.62 7.11) rotate(-16.86)"/><rect class="cls-2" x="12.2" y="29.31" width="12.73" height="1.5"/><circle class="cls-3" cx="37.02" cy="10" r="10"/><polygon class="cls-2" points="40.57 6.92 35.69 10.92 33.46 9.28 32.56 10.25 35.32 13.45 35.8 14.02 36.31 13.47 41.48 7.88 40.57 6.92"/></g></g></g></svg>