<svg xmlns="http://www.w3.org/2000/svg" viewBox="0 0 40 40"><defs><style>.cls-1{fill:#2c2830;}.cls-2{fill:#fff;}</style></defs><title>mining_black</title><g id="Layer_2" data-name="Layer 2"><g id="Layer_1-2" data-name="Layer 1"><g id="mining_black"><circle class="cls-1" cx="20" cy="20" r="20"/><path class="cls-2" d="M26.13,17.43l-2.47-5.49a.75.75,0,0,0-1-.37l-.07,0-1.81,1.05a.74.74,0,0,0-.27,1,.21.21,0,0,0,0,.06l1.27,1.78-9.34,5.38.75,1.3,9.47-5.46,1.36,1.89a.75.75,0,0,0,1,.21l.77-.44A.75.75,0,0,0,26.13,17.43Z"/><rect class="cls-2" x="12.41" y="21.67" width="7.82" height="1.5" transform="translate(-9.84 31.61) rotate(-73.32)"/><rect class="cls-2" x="19.92" y="17.65" width="1.5" height="8.7" transform="translate(-5.49 6.94) rotate(-16.86)"/><rect class="cls-2" x="12.2" y="25.41" width="12.73" height="1.5"/></g></g></g></svg>