<svg xmlns="http://www.w3.org/2000/svg" viewBox="0 0 53.06 50.68"><defs><style>.cls-1{fill:#2577bd;}.cls-2{fill:#fff;}.cls-3{fill:#ea6945;}</style></defs><title>transport_map_active_marked</title><g id="Layer_2" data-name="Layer 2"><g id="Layer_1-2" data-name="Layer 1"><g id="transport_map_active_marked"><circle class="cls-1" cx="22.75" cy="27.93" r="22.75"/><polygon class="cls-1" points="23.08 50.68 45.5 50.68 45.5 26.7 28.66 36.55 23.08 50.68"/><path class="cls-2" d="M24.83,20.52a2.17,2.17,0,0,0-4.16,0c-2.33.25-3.73,1-3.73,2.07v6.53a2.46,2.46,0,0,0,1.37,2.21l4.44,2.23,4.44-2.23a2.46,2.46,0,0,0,1.37-2.21V22.59C28.56,21.54,27.19,20.79,24.83,20.52Zm-2.08-.38a1,1,0,1,1-1,1A1,1,0,0,1,22.75,20.14Zm-3.27,9.71a1.09,1.09,0,1,1,1.09-1.09A1.09,1.09,0,0,1,19.48,29.85Zm6.54,0a1.09,1.09,0,1,1,1.09-1.09A1.09,1.09,0,0,1,26,29.85Zm1.09-3.63H18.39v-2.9h8.72Z"/><polygon class="cls-2" points="28.22 37.16 25.5 33.75 24.36 34.66 26.36 37.16 28.22 37.16"/><polygon class="cls-2" points="19.14 37.16 21.14 34.66 20 33.75 17.28 37.16 19.14 37.16"/><circle class="cls-3" cx="41.68" cy="11.38" r="11.38"/><polygon class="cls-2" points="45.72 7.87 40.17 12.43 37.63 10.56 36.61 11.66 39.74 15.31 40.29 15.95 40.87 15.33 46.75 8.97 45.72 7.87"/></g></g></g></svg>