<svg xmlns="http://www.w3.org/2000/svg" viewBox="0 0 46 46"><defs><style>.cls-1{fill:#2577bd;}.cls-2{fill:#fff;}</style></defs><title>transport_map_active</title><g id="Layer_2" data-name="Layer 2"><g id="Layer_1-2" data-name="Layer 1"><g id="transport_map_active"><circle class="cls-1" cx="23" cy="23" r="23"/><polygon class="cls-1" points="23.34 46 46 46 46 21.75 28.97 31.72 23.34 46"/><path class="cls-2" d="M25.1,15.51a2.19,2.19,0,0,0-4.2,0c-2.36.26-3.77,1-3.77,2.1v6.6a2.49,2.49,0,0,0,1.38,2.24L23,28.68l4.49-2.24a2.49,2.49,0,0,0,1.38-2.24V17.6C28.87,16.53,27.49,15.78,25.1,15.51ZM23,15.12a1,1,0,1,1-1,1A1,1,0,0,1,23,15.12Zm-3.3,9.82a1.1,1.1,0,1,1,1.1-1.1A1.1,1.1,0,0,1,19.7,24.94Zm6.6,0a1.1,1.1,0,1,1,1.1-1.1A1.1,1.1,0,0,1,26.3,24.94Zm1.1-3.67H18.6V18.33h8.8Z"/><polygon class="cls-2" points="28.53 32.33 25.78 28.89 24.63 29.8 26.65 32.33 28.53 32.33"/><polygon class="cls-2" points="19.35 32.33 21.37 29.8 20.22 28.89 17.47 32.33 19.35 32.33"/></g></g></g></svg>