<svg xmlns="http://www.w3.org/2000/svg" viewBox="0 0 46.59 44.55"><defs><style>.cls-1{fill:#2c2830;}.cls-2{fill:#fff;}.cls-3{fill:#ea6945;}</style></defs><title>transport_map_marked</title><g id="Layer_2" data-name="Layer 2"><g id="Layer_1-2" data-name="Layer 1"><g id="transport_map_marked"><circle class="cls-1" cx="20" cy="24.55" r="20"/><polygon class="cls-1" points="20.29 44.55 40 44.55 40 23.47 25.19 32.13 20.29 44.55"/><path class="cls-2" d="M21.83,18a1.91,1.91,0,0,0-3.66,0c-2.05.23-3.28.86-3.28,1.82V25.6a2.18,2.18,0,0,0,1.2,1.94l3.91,2,3.91-2a2.18,2.18,0,0,0,1.2-1.94V19.85C25.11,18.93,23.91,18.27,21.83,18ZM20,17.7a.88.88,0,1,1-.88.88A.88.88,0,0,1,20,17.7Zm-2.87,8.54a1,1,0,1,1,.95-1A1,1,0,0,1,17.13,26.24Zm5.74,0a1,1,0,1,1,1-1A1,1,0,0,1,22.87,26.24Zm1-3.19H16.17V20.49h7.66Z"/><polygon class="cls-2" points="24.81 32.66 22.41 29.67 21.42 30.47 23.17 32.66 24.81 32.66"/><polygon class="cls-2" points="16.83 32.66 18.58 30.47 17.59 29.67 15.19 32.66 16.83 32.66"/><circle class="cls-3" cx="36.59" cy="10" r="10"/><polygon class="cls-2" points="40.14 6.92 35.26 10.92 33.03 9.28 32.13 10.25 34.89 13.45 35.37 14.02 35.88 13.47 41.05 7.88 40.14 6.92"/></g></g></g></svg>