<svg xmlns="http://www.w3.org/2000/svg" viewBox="0 0 40 40"><defs><style>.cls-1{fill:#2c2830;}.cls-2{fill:#fff;}</style></defs><title>transport_black</title><g id="Layer_2" data-name="Layer 2"><g id="Layer_1-2" data-name="Layer 1"><g id="transport_black"><circle class="cls-1" cx="20" cy="20" r="20"/><path class="cls-2" d="M21.83,13.48a1.91,1.91,0,0,0-3.66,0c-2.05.23-3.28.86-3.28,1.82v5.75A2.18,2.18,0,0,0,16.09,23l3.91,2,3.91-2a2.18,2.18,0,0,0,1.2-1.94V15.3C25.11,14.38,23.91,13.72,21.83,13.48ZM20,13.15a.88.88,0,1,1-.88.88A.88.88,0,0,1,20,13.15Zm-2.87,8.54a1,1,0,1,1,.95-1A1,1,0,0,1,17.13,21.69Zm5.74,0a1,1,0,1,1,1-1A1,1,0,0,1,22.87,21.69Zm1-3.2H16.17V15.94h7.66Z"/><polygon class="cls-2" points="24.81 28.11 22.41 25.12 21.42 25.91 23.17 28.11 24.81 28.11"/><polygon class="cls-2" points="16.83 28.11 18.58 25.91 17.59 25.12 15.19 28.11 16.83 28.11"/></g></g></g></svg>