<svg xmlns="http://www.w3.org/2000/svg" viewBox="0 0 20.43 32"><defs><style>.cls-1{fill:#2c2830;}</style></defs><title>transport</title><g id="Layer_2" data-name="Layer 2"><g id="Layer_1-2" data-name="Layer 1"><g id="transport"><path class="cls-1" d="M13.87,2.75a3.81,3.81,0,0,0-7.31,0C2.45,3.19,0,4.46,0,6.38v11.5a4.35,4.35,0,0,0,2.4,3.88l7.81,3.91L18,21.76a4.35,4.35,0,0,0,2.4-3.88V6.38C20.43,4.53,18,3.22,13.87,2.75Zm-3.66-.68A1.76,1.76,0,1,1,8.46,3.83,1.76,1.76,0,0,1,10.21,2.07ZM4.47,19.15a1.92,1.92,0,1,1,1.91-1.91A1.92,1.92,0,0,1,4.47,19.15Zm11.49,0a1.92,1.92,0,1,1,1.92-1.91A1.92,1.92,0,0,1,16,19.15Zm1.92-6.38H2.55V7.66H17.88Z"/><polygon class="cls-1" points="19.83 32 15.04 26.02 13.05 27.61 16.56 32 19.83 32"/><polygon class="cls-1" points="3.87 32 7.38 27.61 5.39 26.02 0.6 32 3.87 32"/></g></g></g></svg>