<?xml version="1.0" encoding="utf-8"?>
<!-- Generator: Adobe Illustrator 16.0.0, SVG Export Plug-In . SVG Version: 6.00 Build 0)  -->
<!DOCTYPE svg PUBLIC "-//W3C//DTD SVG 1.1//EN" "http://www.w3.org/Graphics/SVG/1.1/DTD/svg11.dtd">
<svg version="1.1" xmlns="http://www.w3.org/2000/svg" xmlns:xlink="http://www.w3.org/1999/xlink" x="0px" y="0px" width="40px"
	 height="40px" viewBox="0 0 40 40" enable-background="new 0 0 40 40" xml:space="preserve">
<g id="Layer_3">
	<circle cx="20.059" cy="19.941" r="20.059"/>
</g>
<g id="Layer_1" display="none">
	<path display="inline" d="M40,20C40,8.954,31.046,0,20,0C8.955,0,0,8.954,0,20c0,11.045,8.955,20,20,20h20V20L40,20L40,20z"/>
	<path display="inline" fill="#FFFFFF" d="M23.469,19.277v-3.89l-3.889,3.89v-3.89l-3.889,3.89v-6.223h-2.333v13.999h14V15.387
		L23.469,19.277z M16.469,25.499h-1.556v-1.555h1.556V25.499z M16.469,22.387h-1.556v-1.555h1.556V22.387z M19.58,25.499h-1.556
		v-1.555h1.556V25.499z M19.58,22.387h-1.556v-1.555h1.556V22.387z M22.69,25.499h-1.555v-1.555h1.555V25.499z M22.69,22.387h-1.555
		v-1.555h1.555V22.387z M25.803,25.499h-1.556v-1.555h1.556V25.499z M25.803,22.387h-1.556v-1.555h1.556V22.387z"/>
</g>
<g id="Layer_2" display="none">
	<circle display="inline" fill="#C4001D" cx="32.634" cy="7.366" r="7.366"/>
	<polyline display="inline" fill="none" stroke="#FFFFFF" stroke-miterlimit="10" points="28.571,7.781 32.955,12.475 36.696,2.257 
			"/>
</g>
</svg>
