<?xml version="1.0" encoding="utf-8"?>
<!-- Generator: Adobe Illustrator 16.0.0, SVG Export Plug-In . SVG Version: 6.00 Build 0)  -->
<!DOCTYPE svg PUBLIC "-//W3C//DTD SVG 1.1//EN" "http://www.w3.org/Graphics/SVG/1.1/DTD/svg11.dtd">
<svg version="1.1" id="Layer_1" xmlns="http://www.w3.org/2000/svg" xmlns:xlink="http://www.w3.org/1999/xlink" x="0px" y="0px"
	 width="40px" height="40px" viewBox="0 0 40 40" enable-background="new 0 0 40 40" xml:space="preserve">
<path d="M40,20c0,11.045-8.954,20-20,20C8.955,40,0,31.045,0,20C0,8.954,8.955,0,20,0C31.046,0,40,8.954,40,20"/>
<path fill="#FFFFFF" d="M23.469,19.277v-3.89l-3.889,3.89v-3.89l-3.889,3.89v-6.223h-2.333v13.999h14V15.387L23.469,19.277z
	 M16.469,25.499h-1.556v-1.555h1.556V25.499z M16.469,22.387h-1.556v-1.555h1.556V22.387z M19.58,25.499h-1.556v-1.555h1.556V25.499
	z M19.58,22.387h-1.556v-1.555h1.556V22.387z M22.69,25.499h-1.555v-1.555h1.555V25.499z M22.69,22.387h-1.555v-1.555h1.555V22.387z
	 M25.803,25.499h-1.556v-1.555h1.556V25.499z M25.803,22.387h-1.556v-1.555h1.556V22.387z"/>
</svg>
