<?xml version="1.0" encoding="utf-8"?>
<!-- Generator: Adobe Illustrator 16.0.0, SVG Export Plug-In . SVG Version: 6.00 Build 0)  -->
<!DOCTYPE svg PUBLIC "-//W3C//DTD SVG 1.1//EN" "http://www.w3.org/Graphics/SVG/1.1/DTD/svg11.dtd">
<svg version="1.1" id="Layer_1" xmlns="http://www.w3.org/2000/svg" xmlns:xlink="http://www.w3.org/1999/xlink" x="0px" y="0px"
	 width="40px" height="40px" viewBox="0 0 40 40" enable-background="new 0 0 40 40" xml:space="preserve">
<path d="M27.113,18.225V9.333l-8.891,8.892V9.333l-8.89,8.892V4H4v32h32V9.333L27.113,18.225z M11.111,32.446H7.555v-3.555h3.557
	V32.446z M11.111,25.334H7.555V21.78h3.557V25.334z M18.222,32.446h-3.557v-3.555h3.557V32.446z M18.222,25.334h-3.557V21.78h3.557
	V25.334z M25.334,32.446h-3.555v-3.555h3.555V32.446z M25.334,25.334h-3.555V21.78h3.555V25.334z M32.447,32.446h-3.557v-3.555
	h3.557V32.446z M32.447,25.334h-3.557V21.78h3.557V25.334z"/>
</svg>
