<?xml version="1.0" encoding="utf-8"?>
<!-- Generator: Adobe Illustrator 16.0.0, SVG Export Plug-In . SVG Version: 6.00 Build 0)  -->
<!DOCTYPE svg PUBLIC "-//W3C//DTD SVG 1.1//EN" "http://www.w3.org/Graphics/SVG/1.1/DTD/svg11.dtd">
<svg version="1.1" id="Layer_1" xmlns="http://www.w3.org/2000/svg" xmlns:xlink="http://www.w3.org/1999/xlink" x="0px" y="0px"
	 width="203px" height="203px" viewBox="0 0 203 203" enable-background="new 0 0 203 203" xml:space="preserve">
<path fill="#F2F2F2" d="M0,0h203v203H0V0z"/>
<path opacity="0.142" fill="#4A4757" enable-background="new    " d="M151,101c0-27.614-22.387-50-50-50c-27.614,0-50,22.386-50,50
	c0,1.068,0.055,2.059,0.152,3.002C52.712,130.212,74.399,151,101,151c26.38,0,47.936-20.443,49.814-46.344
	C150.93,103.516,151,102.32,151,101z M126.034,81.258c0,4.466-3.62,8.086-8.086,8.086s-8.087-3.621-8.087-8.086
	c0-4.465,3.621-8.086,8.087-8.086S126.034,76.792,126.034,81.258z M101,141c-17.376,0-32.159-11.156-37.667-26.668l22.414-31.38
	l25.422,30.508l15.253-15.253l12.195,16.26C133.07,129.906,118.326,141,101,141z"/>
</svg>
