<svg xmlns="http://www.w3.org/2000/svg" xmlns:xlink="http://www.w3.org/1999/xlink" width="103" height="36" viewBox="0 0 103 36">
    <defs>
        <path id="a" d="M.08.302h5.721V6.87H.081z"/>
        <path id="c" d="M0 35.63h102.652V0H0z"/>
    </defs>
    <g fill="none" fill-rule="evenodd">
        <path fill="#020303" d="M46.614.968c.039-.116.122-.174.25-.174h.948c.081 0 .135.02.166.05a.188.188 0 0 1 .047.132c0 .015 0 .03-.002.042-.002.012-.004.031-.011.054l-.879 2.28.809 2.094c.021-.05.042-.112.068-.174l.106-.274c.047-.116.107-.27.182-.464.076-.193.175-.444.295-.757l.446-1.148.634-1.634a.339.339 0 0 1 .105-.147.276.276 0 0 1 .174-.054h.874c.084 0 .142.02.179.05a.176.176 0 0 1 .052.132c0 .02 0 .038-.002.05a.217.217 0 0 1-.008.035c-.068.17-.137.343-.211.521l-.25.607c-.09.228-.198.483-.316.776l-.426 1.028c-.165.394-.354.85-.566 1.368-.214.517-.46 1.116-.741 1.792-.006.016-.016.035-.025.059a.236.236 0 0 1-.047.069.243.243 0 0 1-.186.081h-.671c-.083 0-.145-.02-.186-.054a.233.233 0 0 1-.075-.124c-.142-.355-.29-.722-.443-1.097-.15-.379-.302-.742-.45-1.1l-.821 2.047a.66.66 0 0 1-.124.228.266.266 0 0 1-.208.1h-.653a.252.252 0 0 1-.136-.035.378.378 0 0 1-.147-.189.664.664 0 0 1-.031-.089c-.398-.992-.799-1.993-1.208-3.002a371.917 371.917 0 0 1-1.198-2.986.077.077 0 0 0-.008-.035.185.185 0 0 1-.005-.058c0-.116.07-.174.207-.174h.925c.058 0 .11.02.157.054a.348.348 0 0 1 .108.159l1.683 4.439L46.614.968zM52.373 4.086c0 .297.053.576.154.838.102.26.246.487.428.684.184.193.401.348.653.46.252.112.528.166.83.166.298 0 .574-.054.828-.166.252-.112.47-.267.655-.46.182-.197.326-.425.43-.684.103-.262.156-.54.156-.838 0-.301-.053-.583-.155-.846a2.14 2.14 0 0 0-.431-.684 1.993 1.993 0 0 0-.655-.464 2.024 2.024 0 0 0-.828-.17 2.012 2.012 0 0 0-1.483.634c-.182.193-.326.42-.428.684-.101.263-.154.545-.154.846m-1.318 0a3.353 3.353 0 0 1 .463-1.712 3.49 3.49 0 0 1 .53-.687 3.471 3.471 0 0 1 1.497-.87c.286-.081.588-.12.902-.12.311 0 .611.039.9.12.291.081.56.197.813.344.252.143.48.32.688.526a3.412 3.412 0 0 1 .872 1.499c.081.286.122.587.122.9 0 .313-.04.61-.122.9a3.444 3.444 0 0 1-.341.804A3.454 3.454 0 0 1 56.159 7a3.276 3.276 0 0 1-.812.339c-.289.081-.589.12-.9.12-.314 0-.616-.039-.903-.12a3.396 3.396 0 0 1-2.026-1.55 3.235 3.235 0 0 1-.343-.803c-.08-.29-.12-.587-.12-.9M62.712 2.935a.976.976 0 0 0-.256-.634.876.876 0 0 0-.673-.298h-1.517V3.87h1.548c.142 0 .27-.026.382-.077a.758.758 0 0 0 .282-.204.925.925 0 0 0 .174-.298c.039-.112.06-.232.06-.355zm-3.755-1.928c0-.144.064-.213.196-.213h2.675c.304 0 .588.058.851.17.262.116.489.267.68.464.193.193.344.42.452.684a2.1 2.1 0 0 1 .165.83 2.08 2.08 0 0 1-.295 1.086 2.047 2.047 0 0 1-.339.433c-.134.131-.279.24-.44.332l1.132 2.364c0 .008.002.016.004.02.004.007.004.015.004.023 0 .05-.014.092-.04.12-.03.027-.08.042-.154.042h-1.06c-.082 0-.138-.046-.169-.135l-.987-2.16h-1.366v2.11c0 .124-.064.185-.194.185h-.92a.227.227 0 0 1-.137-.042c-.039-.031-.058-.077-.058-.143v-6.17zM64.912.98c0-.055.018-.097.055-.136a.199.199 0 0 1 .149-.058h.905c.122 0 .186.066.196.193v5.178h2.596c.054 0 .099.015.138.054a.19.19 0 0 1 .058.147v.811c0 .12-.066.186-.196.193h-3.705c-.132 0-.196-.065-.196-.193V.98zM71.318 1.984v4.173h.849c.295 0 .574-.054.835-.155.262-.1.49-.243.687-.425.194-.185.348-.402.463-.657a2 2 0 0 0 .17-.834 2.049 2.049 0 0 0-1.32-1.94 2.315 2.315 0 0 0-.835-.162h-.85zm4.332 2.102a3.182 3.182 0 0 1-.993 2.338 3.309 3.309 0 0 1-1.492.826c-.29.074-.59.112-.901.112h-2.042c-.023 0-.048 0-.071-.004a.22.22 0 0 1-.068-.023.116.116 0 0 1-.055-.054.186.186 0 0 1-.019-.097V1.007c0-.147.072-.22.213-.22h2.042a3.595 3.595 0 0 1 1.705.444c.251.143.48.313.687.51.208.197.384.417.529.664a3.21 3.21 0 0 1 .465 1.68zM43.735 13.444v1.727h1.587a.74.74 0 0 0 .318-.07.865.865 0 0 0 .504-.777.85.85 0 0 0-.065-.324.897.897 0 0 0-.434-.48.697.697 0 0 0-.323-.076h-1.587zm2.111-1.843c0-.22-.072-.39-.217-.518-.145-.128-.333-.19-.568-.19h-1.326V12.4h1.316a.786.786 0 0 0 .739-.486.872.872 0 0 0 .056-.313zm1.314-.024c0 .24-.04.464-.122.67-.081.207-.195.39-.343.544a2.082 2.082 0 0 1 .57.688 1.94 1.94 0 0 1 .219.877c0 .262-.05.513-.15.749a1.963 1.963 0 0 1-1.012 1.05c-.23.105-.478.16-.742.16h-2.915a.265.265 0 0 1-.177-.059.232.232 0 0 1-.068-.177V9.997a.26.26 0 0 1 .065-.181.232.232 0 0 1 .18-.07H45.3c.256 0 .498.046.725.143.227.093.425.224.594.387.168.162.3.355.397.58.095.223.143.463.143.721zM49.65 13.718c0 .205.032.402.102.583.068.182.163.344.287.48.124.138.274.247.446.328.175.077.365.116.572.116.206 0 .396-.04.568-.116a1.41 1.41 0 0 0 .731-.808c.068-.181.103-.378.103-.583V9.943c0-.054.019-.1.06-.14a.207.207 0 0 1 .15-.057h.877c.053 0 .103.02.151.054.047.035.07.081.07.143v3.775c0 .37-.07.722-.211 1.047a2.75 2.75 0 0 1-.586.861 2.666 2.666 0 0 1-1.913.792c-.25 0-.488-.03-.719-.096a2.76 2.76 0 0 1-1.625-1.24 2.731 2.731 0 0 1-.275-.646 2.618 2.618 0 0 1-.097-.718V9.943c0-.046.017-.088.052-.131a.167.167 0 0 1 .134-.066h.919c.04 0 .085.02.132.058a.172.172 0 0 1 .072.14v3.774zM58.864 11.496a.209.209 0 0 1-.106-.027c-.032-.019-.068-.046-.111-.077l-.008-.004a1.796 1.796 0 0 0-.219-.185 1.862 1.862 0 0 0-.297-.19 1.75 1.75 0 0 0-.352-.15 1.192 1.192 0 0 0-.384-.062c-.165 0-.312.015-.44.054a.917.917 0 0 0-.318.15.595.595 0 0 0-.196.225.575.575 0 0 0-.068.274c0 .104.035.197.1.278.067.077.158.151.272.213.113.066.245.123.392.174.15.05.304.1.467.147.277.084.553.181.822.285.272.105.514.232.727.383.213.15.384.332.516.54.132.213.198.468.198.765 0 .321-.065.611-.196.87-.13.259-.309.483-.54.669-.228.181-.498.324-.806.42-.31.101-.642.151-.996.151-.229 0-.456-.027-.68-.08a3.424 3.424 0 0 1-.648-.225 3.461 3.461 0 0 1-.588-.352 2.965 2.965 0 0 1-.494-.463v.004l-.01-.016c-.066-.073-.097-.143-.097-.204 0-.059.035-.124.107-.19l.062-.065.083-.082c.045-.038.092-.08.142-.127a2.209 2.209 0 0 1 .29-.228.253.253 0 0 1 .105-.039c.041 0 .08.016.117.039a.942.942 0 0 1 .087.077l.02.02h-.006a3.224 3.224 0 0 0 .746.514c.136.069.271.123.405.162.136.042.262.062.38.062.163 0 .316-.024.457-.062.142-.043.266-.1.369-.178a.811.811 0 0 0 .244-.27.719.719 0 0 0 .09-.356.504.504 0 0 0-.117-.332 1.048 1.048 0 0 0-.302-.244 2.282 2.282 0 0 0-.42-.177c-.154-.05-.311-.097-.466-.144a7.283 7.283 0 0 1-.948-.35 2.862 2.862 0 0 1-.677-.43 1.632 1.632 0 0 1-.407-.529 1.593 1.593 0 0 1-.136-.661c0-.274.057-.525.167-.75.11-.227.27-.42.473-.579a2.3 2.3 0 0 1 .737-.379c.287-.089.609-.135.963-.135.27 0 .543.043.82.128.28.085.537.2.774.347.07.043.143.093.217.15.074.055.141.113.204.171.061.058.114.112.153.166.04.054.06.1.06.14a.203.203 0 0 1-.027.108.487.487 0 0 1-.066.1l-.134.143v-.004c-.045.046-.09.097-.138.143-.046.05-.093.097-.141.135a1.24 1.24 0 0 1-.128.1.182.182 0 0 1-.099.04M60.803 9.943c0-.054.015-.1.048-.139.033-.039.081-.058.148-.058h.895c.045 0 .091.02.141.054.05.035.076.081.076.143v6.178c0 .128-.072.193-.217.193h-.895c-.132 0-.196-.065-.196-.193V9.943zM63.546 9.943c0-.054.015-.1.048-.139.033-.039.082-.058.148-.058h1.042a.36.36 0 0 1 .144.035.223.223 0 0 1 .112.104l2.918 4.1v-4.1a.182.182 0 0 1 .087-.108.25.25 0 0 1 .107-.031h.897c.045 0 .092.02.142.054.05.035.076.081.076.143v6.178c0 .128-.074.193-.218.193h-.946c-.033 0-.062-.015-.09-.042a1.433 1.433 0 0 1-.095-.105l-3.085-4.42v4.374c.008.128-.056.193-.196.193h-.895c-.132 0-.196-.065-.196-.193V9.943zM70.567 9.959c0-.143.064-.213.196-.213h4.279c.075 0 .13.023.163.066a.256.256 0 0 1 .048.162v.777a.21.21 0 0 1-.054.142.223.223 0 0 1-.167.062h-3.156V12.3h2.433c.058-.008.107.004.142.035.034.03.054.085.054.158v.8c0 .054-.016.1-.045.143-.03.042-.077.062-.143.062h-2.441v1.61h3.272c.082 0 .136.016.163.051.027.035.04.093.04.166v.804c0 .123-.065.185-.195.185h-4.393a.232.232 0 0 1-.138-.042c-.038-.031-.058-.077-.058-.143v-6.17zM80.014 11.496a.21.21 0 0 1-.106-.027c-.031-.019-.068-.046-.11-.077l-.008-.004a1.796 1.796 0 0 0-.22-.185 1.862 1.862 0 0 0-.296-.19 1.75 1.75 0 0 0-.353-.15 1.192 1.192 0 0 0-.384-.062c-.164 0-.312.015-.44.054a.913.913 0 0 0-.318.15.595.595 0 0 0-.195.225.575.575 0 0 0-.068.274c0 .104.035.197.1.278a.95.95 0 0 0 .272.213c.112.066.244.123.391.174.15.05.305.1.468.147.277.084.552.181.822.285.271.105.513.232.726.383.214.15.384.332.516.54.132.213.198.468.198.765 0 .321-.064.611-.196.87-.13.259-.308.483-.539.669-.229.181-.498.324-.806.42-.31.101-.642.151-.997.151-.228 0-.455-.027-.68-.08a3.424 3.424 0 0 1-.648-.225 3.461 3.461 0 0 1-.587-.352 2.965 2.965 0 0 1-.494-.463v.004l-.01-.016c-.066-.073-.097-.143-.097-.204 0-.059.035-.124.107-.19l.061-.065.084-.082c.044-.038.091-.08.141-.127a2.306 2.306 0 0 1 .291-.228.253.253 0 0 1 .105-.039c.04 0 .08.016.116.039a.942.942 0 0 1 .087.077l.02.02h-.006a3.224 3.224 0 0 0 .746.514c.136.069.272.123.406.162.135.042.261.062.38.062.162 0 .315-.024.457-.062.142-.043.266-.1.368-.178a.811.811 0 0 0 .244-.27.719.719 0 0 0 .09-.356.504.504 0 0 0-.116-.332 1.048 1.048 0 0 0-.303-.244 2.29 2.29 0 0 0-.418-.177c-.156-.05-.313-.097-.468-.144a7.283 7.283 0 0 1-.948-.35 2.87 2.87 0 0 1-.676-.43 1.632 1.632 0 0 1-.408-.529 1.593 1.593 0 0 1-.135-.661c0-.274.056-.525.166-.75.11-.227.27-.42.474-.579a2.3 2.3 0 0 1 .736-.379c.287-.089.609-.135.963-.135.27 0 .543.043.82.128.28.085.538.2.774.347.07.043.144.093.217.15.074.055.142.113.204.171.062.058.114.112.153.166.04.054.06.1.06.14a.203.203 0 0 1-.027.108.487.487 0 0 1-.066.1l-.134.143v-.004c-.044.046-.089.097-.137.143-.047.05-.093.097-.142.135a1.2 1.2 0 0 1-.128.1.182.182 0 0 1-.099.04M85.704 11.496a.21.21 0 0 1-.106-.027c-.031-.019-.068-.046-.11-.077l-.009-.004a1.796 1.796 0 0 0-.219-.185 1.845 1.845 0 0 0-.296-.19 1.75 1.75 0 0 0-.353-.15 1.192 1.192 0 0 0-.384-.062c-.165 0-.312.015-.44.054a.917.917 0 0 0-.318.15.595.595 0 0 0-.196.225.575.575 0 0 0-.068.274c0 .104.035.197.101.278a.95.95 0 0 0 .272.213c.112.066.244.123.391.174.15.05.304.1.467.147.278.084.553.181.822.285.272.105.514.232.727.383.214.15.384.332.516.54.132.213.198.468.198.765 0 .321-.064.611-.196.87-.13.259-.308.483-.539.669-.229.181-.498.324-.807.42-.31.101-.641.151-.996.151-.228 0-.456-.027-.68-.08a3.424 3.424 0 0 1-.648-.225 3.461 3.461 0 0 1-.587-.352 2.965 2.965 0 0 1-.495-.463v.004l-.01-.016c-.065-.073-.096-.143-.096-.204 0-.059.035-.124.106-.19l.062-.065.084-.082c.044-.038.09-.08.141-.127a2.306 2.306 0 0 1 .291-.228.253.253 0 0 1 .105-.039c.04 0 .08.016.116.039a.942.942 0 0 1 .087.077l.02.02h-.006a3.218 3.218 0 0 0 .746.514c.136.069.272.123.406.162.135.042.261.062.38.062.162 0 .315-.024.457-.062.142-.043.266-.1.368-.178a.811.811 0 0 0 .244-.27.719.719 0 0 0 .09-.356.504.504 0 0 0-.117-.332 1.048 1.048 0 0 0-.302-.244 2.29 2.29 0 0 0-.419-.177c-.155-.05-.312-.097-.467-.144a7.283 7.283 0 0 1-.948-.35 2.87 2.87 0 0 1-.676-.43 1.632 1.632 0 0 1-.408-.529 1.593 1.593 0 0 1-.136-.661c0-.274.057-.525.167-.75.111-.227.27-.42.473-.579a2.3 2.3 0 0 1 .737-.379c.287-.089.609-.135.963-.135.27 0 .543.043.82.128.28.085.538.2.774.347.07.043.143.093.217.15.074.055.142.113.204.171.062.058.114.112.153.166.04.054.06.1.06.14a.203.203 0 0 1-.027.108.472.472 0 0 1-.066.1l-.134.143v-.004c-.045.046-.09.097-.138.143-.046.05-.093.097-.14.135a1.2 1.2 0 0 1-.129.1.182.182 0 0 1-.099.04M42.42 18.895c0-.054.016-.1.049-.139.033-.039.081-.058.147-.058h.896c.045 0 .091.02.141.054.05.035.076.081.076.143v6.178c0 .127-.072.193-.217.193h-.896c-.131 0-.196-.066-.196-.193v-6.178zM45.164 18.895c0-.054.015-.1.048-.139.033-.039.082-.058.147-.058h1.043a.35.35 0 0 1 .144.035c.052.023.09.058.112.104l2.918 4.1v-4.1a.181.181 0 0 1 .087-.108.244.244 0 0 1 .107-.03h.897c.045 0 .092.018.142.053.05.035.075.081.075.143v6.178c0 .127-.073.193-.217.193h-.946c-.033 0-.062-.015-.09-.042a1.22 1.22 0 0 1-.096-.105l-3.084-4.42v4.374c.007.127-.056.193-.196.193h-.896c-.131 0-.195-.066-.195-.193v-6.178zM51.65 18.895c0-.054.024-.1.066-.139a.232.232 0 0 1 .157-.058h4.53a.24.24 0 0 1 .15.05.19.19 0 0 1 .077.147v.777c0 .066-.019.12-.058.166-.038.046-.094.07-.168.07h-1.611v5.134a.188.188 0 0 1-.018.074.438.438 0 0 1-.044.07.184.184 0 0 1-.064.057.152.152 0 0 1-.078.023h-.887a.17.17 0 0 1-.07-.02.457.457 0 0 1-.07-.049.339.339 0 0 1-.056-.073.172.172 0 0 1-.022-.082v-5.134h-1.61a.236.236 0 0 1-.158-.062.237.237 0 0 1-.066-.174v-.777zM57.608 18.91c0-.142.064-.212.195-.212h4.28c.075 0 .129.023.162.066a.256.256 0 0 1 .048.162v.777c0 .054-.017.1-.054.142a.222.222 0 0 1-.167.063h-3.156v1.344h2.433c.059-.007.107.004.142.035.035.03.054.085.054.158v.8c0 .054-.015.1-.044.143-.031.042-.078.062-.144.062h-2.44v1.61h3.272c.081 0 .135.016.163.051.026.035.04.093.04.166v.804c0 .124-.066.186-.196.186h-4.393a.228.228 0 0 1-.137-.043c-.039-.031-.058-.077-.058-.143v-6.17zM67.638 20.248a2.173 2.173 0 0 0-1.277-.422 2 2 0 0 0-1.484.634c-.182.193-.325.421-.428.684a2.338 2.338 0 0 0-.153.846 2.2 2.2 0 0 0 .581 1.522c.185.193.402.348.654.46.252.112.527.166.83.166.128 0 .263-.007.409-.027.143-.015.286-.039.43-.07v-1.468c0-.057.015-.104.049-.139.032-.038.08-.054.145-.054h.798a.25.25 0 0 1 .144.05c.05.035.076.086.076.143v2.052c0 .081-.043.147-.13.193a3.037 3.037 0 0 1-.898.414 3.82 3.82 0 0 1-1.014.131c-.314 0-.616-.039-.903-.12a3.376 3.376 0 0 1-1.497-.87 3.335 3.335 0 0 1-.872-1.483c-.08-.29-.12-.587-.12-.9a3.338 3.338 0 0 1 .463-1.711c.147-.252.324-.48.53-.688a3.45 3.45 0 0 1 1.497-.87c.286-.08.588-.12.902-.12.351 0 .686.05 1.003.147.316.1.614.244.891.43.05.026.088.065.111.115.025.046.02.1-.014.166l-.43.73c-.043.059-.088.093-.132.101-.044.012-.099-.004-.16-.042M73.506 20.839a.974.974 0 0 0-.256-.633 1.072 1.072 0 0 0-.292-.217.871.871 0 0 0-.38-.081H71.06v1.865h1.549a.93.93 0 0 0 .382-.076.76.76 0 0 0 .281-.205.925.925 0 0 0 .174-.298c.039-.112.06-.232.06-.355zm-3.755-1.928c0-.143.064-.213.196-.213h2.675c.305 0 .588.058.851.17.262.116.49.267.681.464.192.193.343.42.452.684a2.1 2.1 0 0 1 .164.83c0 .201-.025.394-.077.576a2.052 2.052 0 0 1-.217.51 2.049 2.049 0 0 1-.34.433c-.133.131-.279.24-.44.332l1.133 2.365c0 .007.001.015.003.019a.05.05 0 0 1 .004.023c0 .05-.013.093-.04.12-.03.027-.08.043-.154.043h-1.06c-.082 0-.137-.047-.169-.136l-.987-2.16H71.06v2.11c0 .124-.064.186-.194.186h-.919a.228.228 0 0 1-.137-.043c-.04-.03-.059-.077-.059-.143v-6.17zM77.39 22.89h1.88l-.937-2.283-.944 2.283zm.43-4.045a.278.278 0 0 1 .083-.104c.035-.027.093-.043.172-.043h.516c.066 0 .115.016.152.043a.282.282 0 0 1 .083.104l2.64 6.217v.027a.197.197 0 0 1-.042.123c-.031.035-.097.055-.2.055h-.853c-.056 0-.099-.008-.126-.028-.03-.02-.052-.058-.07-.108l-.438-1.031h-2.815l-.438 1.031c-.027.089-.081.136-.164.136h-.924c-.075 0-.126-.016-.153-.043-.028-.027-.042-.07-.042-.12 0-.008.22-.53.665-1.572.444-1.04 1.095-2.605 1.954-4.687zM80.66 18.895c0-.054.023-.1.066-.139a.233.233 0 0 1 .157-.058h4.53a.24.24 0 0 1 .15.05.19.19 0 0 1 .077.147v.777c0 .066-.02.12-.058.166-.039.046-.095.07-.169.07h-1.61v5.134a.188.188 0 0 1-.018.074.438.438 0 0 1-.045.07.184.184 0 0 1-.063.057.152.152 0 0 1-.078.023h-.888a.17.17 0 0 1-.07-.02.457.457 0 0 1-.07-.049.339.339 0 0 1-.056-.073.172.172 0 0 1-.021-.082v-5.134h-1.611a.237.237 0 0 1-.157-.062.237.237 0 0 1-.066-.174v-.777zM86.616 18.895c0-.054.015-.1.048-.139.033-.039.081-.058.147-.058h.896c.044 0 .09.02.142.054.05.035.075.081.075.143v6.178c0 .127-.072.193-.217.193h-.896c-.132 0-.195-.066-.195-.193v-6.178zM90.347 21.99a2.187 2.187 0 0 0 .581 1.522c.185.193.402.348.654.46.252.112.528.166.83.166.298 0 .574-.054.827-.166.253-.112.472-.267.656-.46.182-.197.326-.425.43-.684.103-.262.155-.54.155-.838 0-.301-.052-.583-.154-.846a2.133 2.133 0 0 0-.431-.684 1.998 1.998 0 0 0-1.483-.633 1.994 1.994 0 0 0-1.483.633c-.182.193-.326.42-.429.684-.1.263-.153.545-.153.846m-1.318 0a3.368 3.368 0 0 1 .993-2.4 3.467 3.467 0 0 1 1.497-.87c.286-.08.589-.119.903-.119.31 0 .61.04.899.12.29.081.56.197.812.344.253.143.481.32.689.526a3.412 3.412 0 0 1 .872 1.499c.081.286.122.587.122.9 0 .313-.04.61-.122.9a3.444 3.444 0 0 1-.341.804 3.454 3.454 0 0 1-1.22 1.21 3.292 3.292 0 0 1-.812.34c-.289.08-.59.119-.9.119-.313 0-.616-.039-.903-.12a3.396 3.396 0 0 1-2.026-1.55 3.235 3.235 0 0 1-.343-.803 3.39 3.39 0 0 1-.12-.9"/>
        <g transform="translate(96.85 18.396)">
            <mask id="b" fill="#fff">
                <use xlink:href="#a"/>
            </mask>
            <path fill="#020303" d="M.08.499c0-.054.016-.1.049-.14C.162.322.21.303.276.303H1.32c.044 0 .09.011.144.035a.221.221 0 0 1 .112.104l2.917 4.1V.44A.181.181 0 0 1 4.58.332a.245.245 0 0 1 .106-.03h.898c.045 0 .091.019.141.054.05.035.076.081.076.143v6.178c0 .127-.074.193-.217.193h-.946c-.033 0-.062-.015-.091-.043a1.22 1.22 0 0 1-.095-.104l-3.084-4.42v4.374c.007.127-.057.193-.196.193H.276c-.132 0-.196-.066-.196-.193V.499z" mask="url(#b)"/>
        </g>
        <path fill="#020303" d="M42.42 27.863c0-.143.065-.213.196-.213h4.217c.075 0 .13.023.163.066a.256.256 0 0 1 .048.162v.777c0 .054-.017.1-.054.143a.222.222 0 0 1-.167.062H43.73v1.742h2.361c.06 0 .109.012.148.043.038.027.056.077.056.15v.796c0 .054-.014.1-.043.143-.03.039-.077.062-.143.062h-2.379v2.237c0 .124-.064.185-.194.185h-.919a.228.228 0 0 1-.137-.042c-.04-.03-.059-.077-.059-.143v-6.17zM49.198 31.622c0 .205.033.402.103.583.068.182.163.344.287.48.123.139.273.247.446.328.174.077.364.116.571.116.206 0 .396-.039.568-.116a1.405 1.405 0 0 0 .731-.808c.068-.181.103-.378.103-.583v-3.775c0-.054.02-.1.06-.139a.208.208 0 0 1 .15-.058h.878c.052 0 .102.02.15.055.047.034.07.08.07.142v3.775c0 .37-.07.723-.21 1.047a2.767 2.767 0 0 1-1.449 1.445 2.666 2.666 0 0 1-1.05.209c-.25 0-.49-.031-.72-.097a2.757 2.757 0 0 1-1.625-1.24 2.731 2.731 0 0 1-.275-.645 2.618 2.618 0 0 1-.097-.719v-3.775c0-.046.018-.088.053-.13a.167.167 0 0 1 .133-.067h.92c.04 0 .085.02.131.058a.172.172 0 0 1 .072.14v3.774zM54.661 27.847c0-.054.016-.1.049-.139.032-.038.081-.058.147-.058H55.9c.044 0 .091.012.143.035.052.023.09.058.113.104l2.917 4.1v-4.1a.18.18 0 0 1 .088-.108.246.246 0 0 1 .106-.031h.898c.044 0 .09.02.141.054.05.035.076.082.076.143v6.178c0 .128-.074.193-.217.193h-.946c-.034 0-.062-.015-.092-.042a1.527 1.527 0 0 1-.094-.105l-3.085-4.42v4.374c.008.128-.056.193-.196.193h-.895c-.132 0-.196-.065-.196-.193v-6.178zM62.991 28.84v4.173h.85c.294 0 .573-.054.835-.155.262-.1.49-.243.686-.425.194-.185.349-.401.463-.656a2 2 0 0 0 .171-.835 2.049 2.049 0 0 0-1.32-1.94 2.315 2.315 0 0 0-.836-.162h-.849zm4.333 2.102a3.228 3.228 0 0 1-.461 1.677 3.291 3.291 0 0 1-1.216 1.167 3.507 3.507 0 0 1-1.71.432h-2.041c-.023 0-.049 0-.072-.003a.22.22 0 0 1-.068-.023.114.114 0 0 1-.054-.055.186.186 0 0 1-.02-.096v-6.178c0-.147.072-.22.214-.22h2.041a3.595 3.595 0 0 1 1.706.444c.25.143.48.313.687.51.207.197.384.417.529.664a3.225 3.225 0 0 1 .465 1.681z"/>
        <mask id="d" fill="#fff">
            <use xlink:href="#c"/>
        </mask>
        <path fill="#020303" d="M0 35.63h35.756V0H0z" mask="url(#d)"/>
        <path fill="#FEFEFE" d="M29.585 21.66c-.171.416-.403.783-.7 1.1-.297.317-.65.57-1.06.758-.41.188-.851.281-1.326.281h-5.16a.388.388 0 0 1-.266-.092.329.329 0 0 1-.106-.263V22.43h5.524c.264 0 .514-.057.748-.169.235-.113.44-.265.615-.455.175-.191.314-.413.416-.665a2.114 2.114 0 0 0-.408-2.229 2.011 2.011 0 0 0-.619-.455 1.743 1.743 0 0 0-.76-.169H20.965v-1.37H25.934a1.786 1.786 0 0 0 1.322-.573c.165-.177.293-.383.384-.62.092-.236.138-.489.138-.758 0-.268-.046-.51-.138-.725a1.623 1.623 0 0 0-.958-.907 2.112 2.112 0 0 0-.74-.124h-4.143l-4.275 10.234a.12.12 0 0 1-.033.065.999.999 0 0 1-.089.15.412.412 0 0 1-.113.096.325.325 0 0 1-.17.044h-.493c-.14 0-.239-.036-.296-.108a.485.485 0 0 1-.1-.198l-1.218-2.912.748-1.636c.253.61.862 2.143 1.116 2.759.653-1.601 1.305-3.193 1.958-4.775a974.246 974.246 0 0 0 1.956-4.783.66.66 0 0 1 .163-.23.407.407 0 0 1 .274-.085h4.731c.459 0 .884.079 1.278.234a3.054 3.054 0 0 1 1.965 2.893 3.206 3.206 0 0 1-1.1 2.435 3.268 3.268 0 0 1 1.262 1.216c.15.258.268.533.352.827a3.47 3.47 0 0 1-.13 2.224zM14.06 18.327l-.013.03-.75 1.793-.075.177-1.305 3.117c-.028.13-.087.221-.178.275a.525.525 0 0 1-.267.08h-.437a.322.322 0 0 1-.162-.036.507.507 0 0 1-.19-.185.8.8 0 0 1-.044-.093l-4.7-11.283a.216.216 0 0 0-.011-.053.213.213 0 0 1-.012-.076c0-.161.1-.242.299-.242H7c.183 0 .324.121.421.363l3.89 9.51 1.927-4.798 1.947-4.85a.388.388 0 0 1 .113-.164.267.267 0 0 1 .178-.06h.897c.103 0 .176.021.22.064a.242.242 0 0 1 .064.177.467.467 0 0 1-.025.13l-.41.985-2.16 5.142-.001-.003zm-3.054-6.431c.044-.043.116-.065.22-.065h.897c.07 0 .129.02.177.061.049.04.087.096.113.165l.479 1.18-.751 1.63-.764-1.68-.411-.985a.494.494 0 0 1-.024-.129.24.24 0 0 1 .064-.177z" mask="url(#d)"/>
    </g>
</svg>
