<?xml version="1.0" encoding="utf-8"?>
<!-- Generator: Adobe Illustrator 16.0.0, SVG Export Plug-In . SVG Version: 6.00 Build 0)  -->
<!DOCTYPE svg PUBLIC "-//W3C//DTD SVG 1.1//EN" "http://www.w3.org/Graphics/SVG/1.1/DTD/svg11.dtd">
<svg version="1.1" id="Layer_1" xmlns="http://www.w3.org/2000/svg" xmlns:xlink="http://www.w3.org/1999/xlink" x="0px" y="0px"
	 width="80px" height="80px" viewBox="0 0 80 80" enable-background="new 0 0 80 80" xml:space="preserve">
<g>
	<path fill="#FFFFFF" d="M55.576,15.85V7.925h-7.975V0H31.651v7.925h-7.975v7.925h-7.975v63.402h47.85V15.85H55.576z M55.576,71.327
		h-31.9V23.776h31.9V71.327z"/>
	<path fill="#FFFFFF" d="M0,79.252h20V39.626H0V79.252z M8,47.553h8v7.924H8V47.55V47.553z M8,63.402h8v7.925H8V63.402z M60,39.626
		v39.626h20V39.626H60z M72,71.327h-8v-7.925h8V71.327z M72,55.477h-8V47.55h8V55.477L72,55.477z M32.15,32.15h15.7v7.975h-15.7
		V32.15z M32.15,48.1h15.7v7.976h-15.7V48.1z M32.15,64.299h15.702v11.963H32.15V64.299z"/>
</g>
</svg>
