<?xml version="1.0" encoding="utf-8"?>
<!-- Generator: Adobe Illustrator 16.0.0, SVG Export Plug-In . SVG Version: 6.00 Build 0)  -->
<!DOCTYPE svg PUBLIC "-//W3C//DTD SVG 1.1//EN" "http://www.w3.org/Graphics/SVG/1.1/DTD/svg11.dtd">
<svg version="1.1" id="Layer_1" xmlns="http://www.w3.org/2000/svg" xmlns:xlink="http://www.w3.org/1999/xlink" x="0px" y="0px"
	 width="80px" height="89px" viewBox="0 0 80 89" enable-background="new 0 0 80 89" xml:space="preserve">
<g>
	<path fill="#FFFFFF" d="M40,17.777L0,39.999v48.89h80V39.998L40,17.777L40,17.777z M40,27.945l29.697,16.498H10.303L40,27.945z
		 M8.889,80V53.332h8.889V80H8.889L8.889,80z M26.667,80V53.332h8.889V80H26.667L26.667,80z M44.443,80V53.332h8.891V80H44.443z
		 M71.111,80h-8.889V53.332h8.889V80L71.111,80z M40-0.001h22.223v13.333H40V-0.001z"/>
	<path fill="#FFFFFF" d="M35.556-0.001h8.889v22.222h-8.889V-0.001z"/>
</g>
</svg>
