<svg xmlns="http://www.w3.org/2000/svg" viewBox="0 0 62.24 31.25"><defs><style>.cls-1{fill:#fff;}</style></defs><title>wb_short</title><g id="Layer_2" data-name="Layer 2"><g id="Layer_1-2" data-name="Layer 1"><path class="cls-1" d="M13.25.17A.78.78,0,0,1,13.81,0h2.34a.66.66,0,0,1,.46.16,1,1,0,0,1,.3.43l1.24,3.08L16.2,7.93l-2-4.39L13.14,1a1.28,1.28,0,0,1-.06-.34A.6.6,0,0,1,13.25.17ZM21.19,17l0,.08-2,4.68-.19.46h0l-3.4,8.14a1,1,0,0,1-.46.72,1.37,1.37,0,0,1-.69.21H13.32a.77.77,0,0,1-.42-.1,1.61,1.61,0,0,1-.3-.21,1.56,1.56,0,0,1-.2-.27,2.35,2.35,0,0,1-.11-.24L.06,1A.58.58,0,0,0,0,.83a.64.64,0,0,1,0-.2Q0,0,.78,0h2c.48,0,.84.32,1.09,1L14,25.78l5-12.53L24.12.59a1,1,0,0,1,.29-.43A.68.68,0,0,1,24.87,0h2.34a.83.83,0,0,1,.57.17A.64.64,0,0,1,28,.63a1.37,1.37,0,0,1-.07.34L26.81,3.54h0L21.19,17Zm40.39,8.7a9.17,9.17,0,0,1-1.82,2.87,8.68,8.68,0,0,1-2.75,2,8.2,8.2,0,0,1-3.46.74H40.13a1,1,0,0,1-.7-.24.87.87,0,0,1-.27-.69V27.67H53.53a4.49,4.49,0,0,0,1.95-.44A5.19,5.19,0,0,0,57.08,26a5.68,5.68,0,0,0,1.08-1.73,5.47,5.47,0,0,0,.4-2.09,5.38,5.38,0,0,0-.39-2,5.81,5.81,0,0,0-1.07-1.71,5.11,5.11,0,0,0-1.61-1.19,4.48,4.48,0,0,0-2-.44H39.16V13.28H52.08a4.56,4.56,0,0,0,1.92-.4,4.63,4.63,0,0,0,1.52-1.1,5,5,0,0,0,1-1.62,5.35,5.35,0,0,0,.36-2,4.8,4.8,0,0,0-.36-1.9,4.3,4.3,0,0,0-1-1.44A4.42,4.42,0,0,0,54,3.92,5.7,5.7,0,0,0,52.1,3.6H41.32L30.2,30.32a.28.28,0,0,1-.09.17,2.11,2.11,0,0,1-.23.39,1.24,1.24,0,0,1-.29.26.93.93,0,0,1-.44.11H27.86a1,1,0,0,1-.77-.28,1.33,1.33,0,0,1-.26-.52l-3.17-7.6,1.95-4.28c.66,1.6,2.24,5.6,2.9,7.21q2.55-6.27,5.1-12.47T38.7.82a1.69,1.69,0,0,1,.42-.6A1.09,1.09,0,0,1,39.83,0H52.14a9.08,9.08,0,0,1,3.33.61,8.26,8.26,0,0,1,2.67,1.71A8,8,0,0,1,59.93,4.9a8.18,8.18,0,0,1,.65,3.26,8.18,8.18,0,0,1-.77,3.55,8.37,8.37,0,0,1-2.09,2.81,8.73,8.73,0,0,1,1.85,1.36A8.39,8.39,0,0,1,61,17.7a9,9,0,0,1,.92,2.16,8.84,8.84,0,0,1,.32,2.36A9,9,0,0,1,61.58,25.66Z"/></g></g></svg>
