<svg xmlns="http://www.w3.org/2000/svg" width="18" height="18" viewBox="0 0 18 18">
    <g fill="#FFF" fill-rule="nonzero">
        <path d="M1 14.75a.75.75 0 0 1-.469-1.335l5.407-4.327 4.727 2.836L15.317 1.69a.75.75 0 0 1 1.366.622l-5.348 11.765-5.273-3.164-4.593 3.673A.747.747 0 0 1 1 14.75z"/>
        <circle cx="6" cy="10" r="2"/>
        <circle cx="11" cy="13" r="2"/>
        <circle cx="11" cy="4" r="2"/>
        <circle cx="6" cy="4" r="2"/>
        <circle cx="16" cy="2" r="2"/>
        <circle cx="16" cy="11" r="2"/>
        <path d="M0 16h18v2H0z"/>
        <path d="M0 0h2v17H0z"/>
        <path d="M16.001 11.75a.749.749 0 0 1-.611-.314L10.614 4.75h-4.45C1.405 6.93 1.053 6.806.763 6.711a.75.75 0 0 1 .274-1.46c.509-.108 2.776-1.071 4.65-1.933l.149-.068h5.55l5.224 7.314a.75.75 0 0 1-.609 1.186zM1.235 5.288h0z"/>
    </g>
</svg>
