<svg xmlns="http://www.w3.org/2000/svg" viewBox="0 0 16 15.94"><defs><style>.cls-1{fill:#fff;}</style></defs><title>chat_icon</title><g id="Layer_2" data-name="Layer 2"><g id="Layer_1-2" data-name="Layer 1"><path class="cls-1" d="M13.33,0H2.67A2.68,2.68,0,0,0,0,2.67v7a2.68,2.68,0,0,0,2.67,2.67H5.14v3.6l4.45-3.6h3.74A2.68,2.68,0,0,0,16,9.67v-7A2.68,2.68,0,0,0,13.33,0ZM4.58,7.15a1,1,0,1,1,1-1A1,1,0,0,1,4.58,7.15ZM8,7.15a1,1,0,1,1,1-1A1,1,0,0,1,8,7.15Zm3.42,0a1,1,0,1,1,1-1A1,1,0,0,1,11.42,7.15Z"/></g></g></svg>
