<svg xmlns="http://www.w3.org/2000/svg" viewBox="0 0 39.99 39.99"><defs><style>.cls-1{fill:#e94748;}.cls-2{fill:#fff;}</style></defs><title>co-investment_reject</title><g id="Layer_2" data-name="Layer 2"><g id="Layer_1-2" data-name="Layer 1"><rect class="cls-1" width="39.99" height="39.99"/><path class="cls-2" d="M31,19.35l-2.44-3.26a3.11,3.11,0,0,0-2.45-1.23H17L17,28H27.16V17.58l2.24,3Z"/><rect class="cls-2" x="21.05" y="21.99" width="2.04" height="8.15"/><rect class="cls-2" x="25.12" y="21.99" width="2.04" height="8.15"/><circle class="cls-2" cx="24.11" cy="11.81" r="2.04"/><path class="cls-2" d="M13.92,14.86a3.09,3.09,0,0,0-2.44,1.23L9,19.35l1.63,1.22,2.24-3V28H19V14.86Z"/><rect class="cls-2" x="16.98" y="21.99" width="2.04" height="8.15"/><rect class="cls-2" x="12.9" y="21.99" width="2.04" height="8.15"/><circle class="cls-2" cx="15.96" cy="11.81" r="2.04"/><path class="cls-1" d="M17,25.8a.89.89,0,0,1-.63-1.52l6.22-6.22a.89.89,0,1,1,1.26,1.25l-6.23,6.23A.89.89,0,0,1,17,25.8Z"/><path class="cls-1" d="M23.17,25.8a.89.89,0,0,1-.63-.26l-6.22-6.23a.88.88,0,0,1,1.25-1.25l6.23,6.22a.89.89,0,0,1-.63,1.52Z"/></g></g></svg>