<svg xmlns="http://www.w3.org/2000/svg" viewBox="0 0 80 80"><defs><style>.cls-1{fill:#afaeb2;}</style></defs><title>company</title><g id="Layer_2" data-name="Layer 2"><g id="Layer_1-2" data-name="Layer 1"><path class="cls-1" d="M56,16V8H48V0H32V8H24v8H16V80H64V16Zm0,56H24V24H56Z"/><path class="cls-1" d="M0,80H20V40H0ZM8,48h8v8H8ZM8,64h8v8H8Z"/><path class="cls-1" d="M60,40V80H80V40ZM72,72H64V64h8Zm0-16H64V48h8Z"/><rect class="cls-1" x="32" y="32" width="16" height="8"/><rect class="cls-1" x="32" y="48" width="16" height="8"/><rect class="cls-1" x="32" y="64" width="16" height="12"/></g></g></svg>