<?xml version="1.0" encoding="utf-8"?>
<!-- Generator: Adobe Illustrator 16.0.0, SVG Export Plug-In . SVG Version: 6.00 Build 0)  -->
<!DOCTYPE svg PUBLIC "-//W3C//DTD SVG 1.1//EN" "http://www.w3.org/Graphics/SVG/1.1/DTD/svg11.dtd">
<svg version="1.1" id="Layer_1" xmlns="http://www.w3.org/2000/svg" xmlns:xlink="http://www.w3.org/1999/xlink" x="0px" y="0px"
	 width="368.5px" height="595.279px" viewBox="0 0 368.5 595.279" enable-background="new 0 0 368.5 595.279" xml:space="preserve">
<title>crediting</title>
<g id="Layer_2">
	<g id="Layer_1-2">
		<path fill="#0F7ACD" d="M92.125,359.069h33.165l12.75-12.75v-17.982H92.125V205.552h46.063v-30.733H92.125
			c-16.973,0-30.733,13.76-30.733,30.733v122.784C61.392,345.31,75.152,359.069,92.125,359.069z"/>
		<path fill="#0F7ACD" d="M85.787,398.793l8.992-8.991H30.733v-184.25L8.991,227.22C3.138,233.077-0.104,241.049,0,249.329v140.473
			c0.041,16.944,13.788,30.659,30.733,30.659h33.313L85.787,398.793z"/>
		<path fill="#0F7ACD" d="M337.768,174.819h-46.063v30.733h46.063v122.784h-46.063v30.732h46.063
			c16.973,0,30.732-13.759,30.732-30.732V205.552C368.5,188.578,354.74,174.819,337.768,174.819z"/>
		<path fill="#0F7ACD" d="M243.21,420.461h51.59c8.28,0.104,16.253-3.138,22.11-8.991l21.668-21.668h-64.856L243.21,420.461z"/>
		<polygon fill="#0F7ACD" points="168.92,174.819 168.92,359.069 107.455,420.461 199.58,420.461 261.045,359.069 261.045,174.819 
					"/>
	</g>
</g>
</svg>
