<?xml version="1.0" encoding="utf-8"?>
<!-- Generator: Adobe Illustrator 16.0.0, SVG Export Plug-In . SVG Version: 6.00 Build 0)  -->
<!DOCTYPE svg PUBLIC "-//W3C//DTD SVG 1.1//EN" "http://www.w3.org/Graphics/SVG/1.1/DTD/svg11.dtd">
<svg version="1.1" id="Layer_1" xmlns="http://www.w3.org/2000/svg" xmlns:xlink="http://www.w3.org/1999/xlink" x="0px" y="0px"
	 width="368.5px" height="595.279px" viewBox="0 0 368.5 595.279" enable-background="new 0 0 368.5 595.279" xml:space="preserve">
<title>download</title>
<g id="Layer_2">
	<g id="Layer_1-2">
		<path fill="#FFFFFF" d="M354.911,191.927L243.9,80.916c-8.654-8.707-20.428-13.599-32.703-13.589H46.063
			C20.623,67.327,0,87.95,0,113.39v368.5c0,25.439,20.623,46.063,46.063,46.063h23.031V481.89H46.063v-368.5h161.219v92.125
			c0,12.72,10.312,23.031,23.031,23.031h92.125V481.89h-23.031v46.063h23.031c25.439,0,46.063-20.623,46.063-46.063V224.631
			C368.51,212.355,363.618,200.581,354.911,191.927z"/>
		<polygon fill="#FFFFFF" points="207.281,435.827 207.281,274.609 161.219,274.609 161.219,435.827 92.125,435.827 184.25,527.952 
			276.375,435.827 		"/>
	</g>
</g>
</svg>
