<svg xmlns="http://www.w3.org/2000/svg" viewBox="0 0 85 85"><defs><style>.cls-1{fill:#dad9df;}</style></defs><title>empty_card</title><g id="Layer_2" data-name="Layer 2"><g id="Layer_1-2" data-name="Layer 1"><path class="cls-1" d="M32.25,75.56,9.44,52.75V18.89H75.56V75.56H32.25m0,9.44H75.56A9.44,9.44,0,0,0,85,75.56V9.44A9.44,9.44,0,0,0,75.56,0H9.44A9.44,9.44,0,0,0,0,9.44V52.75a9.4,9.4,0,0,0,2.77,6.68l22.8,22.8A9.4,9.4,0,0,0,32.25,85Z"/><path class="cls-1" d="M33.06,56.67V77.92l-26-26H28.33A4.73,4.73,0,0,1,33.06,56.67Z"/><rect class="cls-1" x="18.89" y="28.33" width="47.22" height="9.44"/><rect class="cls-1" x="42.5" y="47.22" width="23.61" height="9.44"/></g></g></svg>