<svg xmlns="http://www.w3.org/2000/svg" viewBox="0 0 16 16"><defs><style>.cls-1{fill:#4a4758;}</style></defs><title>globe</title><g id="Layer_2" data-name="Layer 2"><g id="Layer_1-2" data-name="Layer 1"><path class="cls-1" d="M8.65,0A8,8,0,1,0,16,7.35,8,8,0,0,0,8.65,0Zm.92,1.16a8.62,8.62,0,0,1,.92.27A1.75,1.75,0,0,0,11,1.7a7,7,0,0,1,2.25,1.7.27.27,0,0,1,.07.17.93.93,0,0,1,0,.44.94.94,0,0,0-.06.28.41.41,0,0,0,.3.34,1.8,1.8,0,0,0,.41,0,.26.26,0,0,1,.24.17,2.46,2.46,0,0,0,.24.51A6.78,6.78,0,0,1,15,7.69a.46.46,0,0,1-.1.31,2.71,2.71,0,0,0-.38.51,7.31,7.31,0,0,1-.78,1.43,1.67,1.67,0,0,0-.44.65,2.5,2.5,0,0,0-.07.54c0,.07-.14.07-.21,0a4.05,4.05,0,0,1-.58-1.33,9.35,9.35,0,0,0-.23-1A1.39,1.39,0,0,0,11.54,8a2.83,2.83,0,0,0-1.09-.17,1.24,1.24,0,0,1-1-.38A.79.79,0,0,1,9.26,7a2.16,2.16,0,0,1,1.09-2.25c.1-.07.2-.1.31-.17a.73.73,0,0,0,.24-.72c0-.06-.11-.1-.14-.06a2.51,2.51,0,0,0-.58.23c-.1,0-.2,0-.17-.1a3.43,3.43,0,0,1,.14-1,1.53,1.53,0,0,0,0-1.09.28.28,0,0,0-.2-.14H9a0,0,0,0,1,0,0,2.27,2.27,0,0,0,.44-.38A.25.25,0,0,1,9.57,1.19Zm-3.44.1c.06,0,.13,0,.17.07s.17.34.27.54a1.67,1.67,0,0,1,.07,1.33c-.24.48-.79.68-1.23.92a6.3,6.3,0,0,0-2.28,2s-.07.11-.1.11a.12.12,0,0,1-.17-.07A.94.94,0,0,1,2.58,6s-.13,0-.13.1A1.1,1.1,0,0,0,3,7.32a.76.76,0,0,1,.2.13c.14.18,0,.41,0,.62s.37.44.68.41A3.46,3.46,0,0,0,4.7,8.2a2.07,2.07,0,0,1,1.83.24c.28.17.52.45.79.62a1.26,1.26,0,0,0,.82.27.26.26,0,0,1,.17.07,1,1,0,0,1-.17.85,7.17,7.17,0,0,1-.75.71c-.58.65-.72,1.64-1.2,2.35a2.24,2.24,0,0,0-.27.45,1.72,1.72,0,0,0-.07.71s0,.1-.06.07a1.28,1.28,0,0,1-.35-.14.23.23,0,0,1-.13-.17,9.21,9.21,0,0,0-1-2.82,2.42,2.42,0,0,0-.75-.92.61.61,0,0,1-.24-.24.65.65,0,0,1,0-.24A2.59,2.59,0,0,0,2.28,7.59c-.14-.1-.28-.17-.34-.31s-.07-.34-.14-.47a1.76,1.76,0,0,0-.48-.41c-.07,0-.07-.1-.07-.17A6.94,6.94,0,0,1,6.13,1.29Z"/></g></g></svg>