<?xml version="1.0" encoding="utf-8"?>
<!-- Generator: Adobe Illustrator 16.0.0, SVG Export Plug-In . SVG Version: 6.00 Build 0)  -->
<!DOCTYPE svg PUBLIC "-//W3C//DTD SVG 1.1//EN" "http://www.w3.org/Graphics/SVG/1.1/DTD/svg11.dtd">
<svg version="1.1" id="Layer_1" xmlns="http://www.w3.org/2000/svg" xmlns:xlink="http://www.w3.org/1999/xlink" x="0px" y="0px"
	 width="368.5px" height="595.279px" viewBox="0 0 368.5 595.279" enable-background="new 0 0 368.5 595.279" xml:space="preserve">
<title>investment</title>
<g id="Layer_2">
	<g id="Layer_1-2">
		<path fill="#0F7ACD" d="M147.4,223.94v-55.274h73.7v55.274h36.851v-55.274c0-20.352-16.499-36.851-36.851-36.851h-73.7
			c-20.352,0-36.85,16.499-36.85,36.851v55.274H147.4z"/>
		<path fill="#0F7ACD" d="M331.65,205.515H36.85C16.499,205.515,0,222.013,0,242.365v184.249c0,20.353,16.499,36.851,36.85,36.851
			h294.8c20.352,0,36.85-16.498,36.85-36.851V242.365C368.5,222.013,352.002,205.515,331.65,205.515z M294.8,242.365
			c0,20.352,16.498,36.85,36.851,36.85v110.55c-20.353,0-36.851,16.498-36.851,36.85H73.7c0-20.352-16.499-36.85-36.85-36.85
			v-110.55c20.352,0,36.85-16.498,36.85-36.85H294.8z"/>
		<ellipse fill="#0F7ACD" cx="184.25" cy="334.49" rx="55.275" ry="73.7"/>
		<circle fill="#0F7ACD" cx="276.375" cy="334.49" r="18.425"/>
		<circle fill="#0F7ACD" cx="92.125" cy="334.49" r="18.425"/>
	</g>
</g>
</svg>
