<?xml version="1.0" encoding="utf-8"?>
<!-- Generator: Adobe Illustrator 16.0.0, SVG Export Plug-In . SVG Version: 6.00 Build 0)  -->
<!DOCTYPE svg PUBLIC "-//W3C//DTD SVG 1.1//EN" "http://www.w3.org/Graphics/SVG/1.1/DTD/svg11.dtd">
<svg version="1.1" id="Layer_1" xmlns="http://www.w3.org/2000/svg" xmlns:xlink="http://www.w3.org/1999/xlink" x="0px" y="0px"
	 width="368.5px" height="595.279px" viewBox="0 0 368.5 595.279" enable-background="new 0 0 368.5 595.279" xml:space="preserve">
<title>leasing</title>
<g id="Layer_2">
	<g id="Layer_1-2">
		<path fill="#0F7ACD" d="M81.881,318.129L81.881,318.129c-11.299-0.041-20.448-9.19-20.489-20.489l0,0
			c0.041-11.299,9.19-20.448,20.489-20.488l0,0c11.315,0,20.488,9.173,20.488,20.488l0,0l0,0
			C102.369,308.955,93.196,318.129,81.881,318.129L81.881,318.129z"/>
		<path fill="#0F7ACD" d="M184.25,420.498L184.25,420.498c-11.299-0.041-20.448-9.19-20.489-20.489l0,0
			c0-11.315,9.173-20.488,20.489-20.488l0,0c11.315,0,20.488,9.173,20.488,20.488l0,0
			C204.698,411.308,195.549,420.457,184.25,420.498z"/>
		<path fill="#0F7ACD" d="M286.619,318.129L286.619,318.129c-11.315,0-20.488-9.174-20.488-20.489l0,0
			c0-11.315,9.173-20.488,20.488-20.488l0,0c11.299,0.04,20.448,9.189,20.488,20.488l0,0
			C307.067,308.939,297.918,318.088,286.619,318.129z"/>
		<path fill="#0F7ACD" d="M184.25,113.39c-6.846,0.021-13.686,0.415-20.489,1.18v82.765h40.977v-41.346
			c68.506,9.825,120.169,67.259,122.711,136.419c1.899,79.789-60.99,146.137-140.768,148.505
			c-78.911,1.394-144.011-61.447-145.404-140.358c-0.56-31.713,9.446-62.711,28.443-88.111l85.566,85.197
			c8.017,7.954,20.947,7.954,28.964,0l0,0c7.953-8.017,7.953-20.947,0-28.964L69.352,153.778C23.417,190.227-2.351,246.418,0,305.01
			c4.743,96.391,82.36,173.176,178.796,176.88c101.758,1.506,185.47-79.765,186.977-181.522
			C367.279,198.609,286.008,114.896,184.25,113.39z"/>
	</g>
</g>
</svg>
