<svg xmlns="http://www.w3.org/2000/svg" viewBox="0 0 20 19.29"><defs><style>.cls-1{fill:#4a4758;}</style></defs><title>map_point</title><g id="Layer_2" data-name="Layer 2"><g id="Layer_1-2" data-name="Layer 1"><path class="cls-1" d="M14.93,9.9c-.35.6-.73,1.19-1.14,1.78,2.64.6,4.21,1.74,4.21,2.61,0,1.22-3.12,3-8,3s-8-1.78-8-3c0-.87,1.58-2,4.24-2.61-.4-.59-.79-1.19-1.14-1.79C2,10.72,0,12.34,0,14.29c0,2.85,4.3,5,10,5s10-2.15,10-5C20,12.34,18,10.73,14.93,9.9Z"/><path class="cls-1" d="M10,0A5,5,0,0,0,5,5c0,3,2.9,6.38,5,9.29,2.23-3,5-6.3,5-9.29A5,5,0,0,0,10,0Zm0,7.29a2,2,0,1,1,2-2A2,2,0,0,1,10,7.29Z"/><ellipse class="cls-1" cx="10" cy="14.29" rx="3" ry="1"/></g></g></svg>