<svg xmlns="http://www.w3.org/2000/svg" width="85" height="85" viewBox="0 0 85 85">
    <g fill="#DAD9DF" fill-rule="nonzero">
        <path d="M32.245 75.556l-22.8-22.801V18.889h66.11v56.667h-43.31zm0 9.444h43.31A9.444 9.444 0 0 0 85 75.556V9.444A9.445 9.445 0 0 0 75.556 0H9.444A9.445 9.445 0 0 0 0 9.444v43.31c0 2.506.995 4.908 2.766 6.679l22.801 22.801A9.445 9.445 0 0 0 32.245 85z"/>
        <path d="M33 56.727V78L7 52h21.273A4.727 4.727 0 0 1 33 56.727zM19 28h47v9H19zM43 47h24v9H43z"/>
    </g>
</svg>
