<svg xmlns="http://www.w3.org/2000/svg" viewBox="0 0 13.38 16"><defs><style>.cls-1{fill:#4a4758;}</style></defs><title>notifications_icon</title><g id="Layer_2" data-name="Layer 2"><g id="Layer_1-2" data-name="Layer 1"><path class="cls-1" d="M6.69,16a1.75,1.75,0,0,0,1.75-1.75H5A1.74,1.74,0,0,0,6.69,16Z"/><path class="cls-1" d="M12.51,11.64c-.48,0-.87-.73-.87-1.21V5A4.08,4.08,0,0,0,7.56.87a.87.87,0,1,0-1.74,0A4.08,4.08,0,0,0,1.75,5v5.48c0,.48-.4,1.21-.88,1.21a.87.87,0,0,0-.87.87v.87H13.38v-.87A.87.87,0,0,0,12.51,11.64Z"/></g></g></svg>