<?xml version="1.0" encoding="utf-8"?>
<!-- Generator: Adobe Illustrator 16.0.0, SVG Export Plug-In . SVG Version: 6.00 Build 0)  -->
<!DOCTYPE svg PUBLIC "-//W3C//DTD SVG 1.1//EN" "http://www.w3.org/Graphics/SVG/1.1/DTD/svg11.dtd">
<svg version="1.1" id="Layer_1" xmlns="http://www.w3.org/2000/svg" xmlns:xlink="http://www.w3.org/1999/xlink" x="0px" y="0px"
	 width="466.75px" height="618.14px" viewBox="-98.25 0 466.75 618.14" enable-background="new -98.25 0 466.75 618.14"
	 xml:space="preserve">
<title>new_project</title>
<g id="Layer_2_1_">
	<g id="Layer_1-2_1_">
		<path fill="#0F7ACD" d="M354.911,191.927L243.9,80.916c-8.654-8.707-20.428-13.599-32.703-13.589H46.063
			C20.623,67.327,0,87.95,0,113.39v368.5c0,25.439,20.623,46.063,46.063,46.063h276.375c25.439,0,46.063-20.623,46.063-46.063
			V224.631C368.51,212.355,363.618,200.581,354.911,191.927z M46.063,481.89v-368.5h161.219v92.125
			c0,12.72,10.312,23.031,23.031,23.031h92.125V481.89H46.063z"/>
	</g>
</g>
<g id="Layer_2">
	<g id="Layer_1-2">
		<path fill="#0F7ACD" d="M-44.516,157.526c-25.439,0-46.063,20.623-46.063,46.063v368.489c0,25.439,20.623,46.063,46.063,46.063
			h276.391c25.439,0,46.063-20.623,46.063-46.063h-46.063H-44.516V203.589V157.526z"/>
	</g>
</g>
</svg>
