<svg xmlns="http://www.w3.org/2000/svg" viewBox="0 0 39.99 39.99"><defs><style>.cls-1{fill:#e94748;}.cls-2{fill:#fff;}</style></defs><title>participation_reject</title><g id="Layer_2" data-name="Layer 2"><g id="Layer_1-2" data-name="Layer 1"><rect class="cls-1" width="39.99" height="39.99"/><path class="cls-2" d="M27.94,18.2v-8H11V26.17a4,4,0,0,0,4,4H27a3,3,0,0,0,3-3v-9ZM15,28.16a2,2,0,0,1-2-2V12.23H26V26.17a2,2,0,0,0,2,2Z"/><path class="cls-2" d="M16.53,24a.93.93,0,0,1-.63-.26.91.91,0,0,1,0-1.26l6.23-6.22a.88.88,0,0,1,1.25,0,.89.89,0,0,1,0,1.26l-6.22,6.22A.89.89,0,0,1,16.53,24Z"/><path class="cls-2" d="M22.76,24a.89.89,0,0,1-.63-.26L15.9,17.52a.91.91,0,0,1,0-1.26.89.89,0,0,1,1.26,0l6.22,6.22A.89.89,0,0,1,22.76,24Z"/></g></g></svg>