<svg xmlns="http://www.w3.org/2000/svg" viewBox="0 0 100 100"><defs><style>.cls-1{fill:#d9d9db;}</style></defs><title>picture_icon</title><g id="Layer_2" data-name="Layer 2"><g id="Layer_1-2" data-name="Layer 1"><path class="cls-1" d="M100,50A50,50,0,0,0,0,50c0,1.07.06,2.06.15,3a49.94,49.94,0,0,0,99.67.66C99.93,52.51,100,51.32,100,50ZM75,30.26A8.09,8.09,0,1,1,67,22.17,8.08,8.08,0,0,1,75,30.26ZM50,90A40,40,0,0,1,12.33,63.33L34.75,32,60.17,62.46,75.42,47.21l12.2,16.26A40,40,0,0,1,50,90Z"/></g></g></svg>