<svg xmlns="http://www.w3.org/2000/svg" viewBox="0 0 39.99 39.99"><defs><style>.cls-1{fill:#2577bd;}.cls-2{fill:#fff;}</style></defs><title>profile-change_accept</title><g id="Layer_2" data-name="Layer 2"><g id="Layer_1-2" data-name="Layer 1"><rect class="cls-1" width="39.99" height="39.99"/><path class="cls-2" d="M26.55,21.38V19.82a.7.7,0,0,0-.58-.69l-1.47-.24a.37.37,0,0,1-.28-.23h0a.4.4,0,0,1,0-.35l.86-1.21a.7.7,0,0,0-.07-.9L24,15.1a.7.7,0,0,0-.9-.07l-1.21.86a.37.37,0,0,1-.35,0h0a.36.36,0,0,1-.22-.27L21,14.19a.7.7,0,0,0-.69-.59H18.78a.72.72,0,0,0-.7.59l-.24,1.47a.38.38,0,0,1-.22.27h0a.37.37,0,0,1-.35,0L16.05,15a.7.7,0,0,0-.9.07l-1.1,1.1a.7.7,0,0,0-.07.9l.86,1.22a.37.37,0,0,1,0,.34h0a.37.37,0,0,1-.28.22l-1.46.25a.69.69,0,0,0-.59.69v1.55a.71.71,0,0,0,.59.69l1.47.25a.38.38,0,0,1,.27.22h0a.34.34,0,0,1,0,.35L14,24.1a.7.7,0,0,0,.08.91l1.09,1.09a.7.7,0,0,0,.91.08l1.21-.86a.34.34,0,0,1,.35,0h0a.38.38,0,0,1,.22.27L18.09,27a.7.7,0,0,0,.69.59h1.55A.7.7,0,0,0,21,27l.25-1.47a.34.34,0,0,1,.22-.27h0a.36.36,0,0,1,.35,0l1.21.87a.71.71,0,0,0,.9-.08l1.1-1.1a.71.71,0,0,0,.08-.9l-.87-1.21a.36.36,0,0,1,0-.35h0a.37.37,0,0,1,.27-.23L26,22.07A.7.7,0,0,0,26.55,21.38Zm-5.22-.78a1.78,1.78,0,1,1-1.78-1.78A1.78,1.78,0,0,1,21.33,20.6Z"/></g></g></svg>