<svg xmlns="http://www.w3.org/2000/svg" viewBox="0 0 39.99 39.99"><defs><style>.cls-1{fill:#e94748;}.cls-2{fill:#fff;}</style></defs><title>project_reject</title><g id="Layer_2" data-name="Layer 2"><g id="Layer_1-2" data-name="Layer 1"><rect class="cls-1" width="39.99" height="39.99"/><path class="cls-2" d="M27.85,14.5h-4v-2a2,2,0,0,0-2-2h-4a2,2,0,0,0-2,2v2h-4a2,2,0,0,0-2,2v10a2,2,0,0,0,2,2h16a2,2,0,0,0,2-2v-10A2,2,0,0,0,27.85,14.5Zm-6,0h-4v-2h4Z"/><path class="cls-1" d="M16.68,25.71a.89.89,0,0,1-.63-1.52L22.27,18a.89.89,0,0,1,1.26,1.26l-6.22,6.22A.91.91,0,0,1,16.68,25.71Z"/><path class="cls-1" d="M22.9,25.71a.91.91,0,0,1-.63-.26l-6.22-6.22A.89.89,0,0,1,17.31,18l6.22,6.22a.89.89,0,0,1-.63,1.52Z"/></g></g></svg>