<svg xmlns="http://www.w3.org/2000/svg" viewBox="0 0 39.99 39.99"><defs><style>.cls-1{fill:#2577bd;}.cls-2{fill:#fff;}</style></defs><title>project_accept</title><g id="Layer_2" data-name="Layer 2"><g id="Layer_1-2" data-name="Layer 1"><rect class="cls-1" width="39.99" height="39.99"/><path class="cls-2" d="M27.85,14.5h-4v-2a2,2,0,0,0-2-2h-4a2,2,0,0,0-2,2v2h-4a2,2,0,0,0-2,2v10a2,2,0,0,0,2,2h16a2,2,0,0,0,2-2v-10A2,2,0,0,0,27.85,14.5Zm-6,0h-4v-2h4Z"/><polygon class="cls-1" points="24.3 17.34 18.62 22.01 16.02 20.09 14.98 21.22 18.18 24.95 18.75 25.61 19.34 24.98 25.36 18.47 24.3 17.34"/></g></g></svg>