<svg xmlns="http://www.w3.org/2000/svg" viewBox="0 0 88 88"><defs><style>.cls-1{fill:#dad9df;}</style></defs><title>sad_face</title><g id="Layer_2" data-name="Layer 2"><g id="Layer_13" data-name="Layer 13"><path class="cls-1" d="M44,88A44,44,0,1,1,88,44,44,44,0,0,1,44,88ZM44,8.8A35.2,35.2,0,1,0,79.2,44,35.2,35.2,0,0,0,44,8.8Z"/><circle class="cls-1" cx="29.33" cy="43.02" r="4.4"/><circle class="cls-1" cx="58.67" cy="43.02" r="4.4"/><path class="cls-1" d="M53.68,66.67a17.79,17.79,0,0,0-19.36,0A2.2,2.2,0,0,1,31.89,63a21.9,21.9,0,0,1,24.22,0,2.2,2.2,0,0,1-2.43,3.67Z"/><path class="cls-1" d="M81.3,30.8A39.45,39.45,0,0,0,31,6.62h0C33.18,20.14,54.84,30.77,81.3,30.8Z"/><path class="cls-1" d="M6.7,30.8c18.07-.05,32.71-11.71,32.88-26.14A39.59,39.59,0,0,0,6.7,30.8Z"/></g></g></svg>