<svg xmlns="http://www.w3.org/2000/svg" viewBox="0 0 14 14.01"><defs><style>.cls-1{fill:#4a4758;}</style></defs><title>settings</title><g id="Layer_2" data-name="Layer 2"><g id="Layer_1-2" data-name="Layer 1"><path class="cls-1" d="M14,7.78V6.22a.71.71,0,0,0-.59-.69L12,5.29a.37.37,0,0,1-.28-.23h0a.37.37,0,0,1,0-.35l.86-1.21a.7.7,0,0,0-.07-.9L11.4,1.5a.7.7,0,0,0-.9-.07l-1.22.86a.35.35,0,0,1-.34,0h0a.36.36,0,0,1-.22-.27L8.47.59A.71.71,0,0,0,7.78,0H6.22a.71.71,0,0,0-.69.59L5.29,2.05a.37.37,0,0,1-.23.28h0a.37.37,0,0,1-.35,0L3.5,1.43a.7.7,0,0,0-.9.07L1.5,2.6a.7.7,0,0,0-.07.9l.86,1.22a.35.35,0,0,1,0,.34h0a.36.36,0,0,1-.27.22L.59,5.54A.69.69,0,0,0,0,6.23V7.78a.71.71,0,0,0,.59.69l1.46.25a.37.37,0,0,1,.28.22h0a.36.36,0,0,1,0,.35L1.43,10.5a.71.71,0,0,0,.07.91L2.6,12.5a.7.7,0,0,0,.9.08l1.22-.86a.32.32,0,0,1,.34,0h0a.38.38,0,0,1,.22.27l.25,1.47a.69.69,0,0,0,.69.59H7.78a.71.71,0,0,0,.69-.59L8.71,12a.35.35,0,0,1,.23-.27h0a.36.36,0,0,1,.35,0l1.21.86a.7.7,0,0,0,.9-.07l1.1-1.1a.7.7,0,0,0,.07-.9l-.86-1.21a.36.36,0,0,1,0-.35h0A.35.35,0,0,1,12,8.71l1.47-.24A.71.71,0,0,0,14,7.78ZM8.78,7A1.78,1.78,0,1,1,7,5.22,1.78,1.78,0,0,1,8.78,7Z"/></g></g></svg>