<svg xmlns="http://www.w3.org/2000/svg" viewBox="0 0 20.65 19.29"><defs><style>.cls-1{fill:#0f7acd;}</style></defs><title>switch_map_white</title><g id="Layer_2" data-name="Layer 2"><g id="Layer_1-2" data-name="Layer 1"><path class="cls-1" d="M18.08,10.29H15c-.41.67-.85,1.33-1.33,2h2.88l1.43,5H2.65l1.43-5H7c-.47-.66-.92-1.33-1.34-2H2.57L0,19.29H20.65Z"/><path class="cls-1" d="M15.33,5a5,5,0,0,0-10,0c0,3,2.9,6.38,5,9.29C12.56,11.29,15.33,8,15.33,5Zm-7,.29a2,2,0,1,1,2,2,2,2,0,0,1-2-2Z"/></g></g></svg>
