<?xml version="1.0" encoding="utf-8"?>
<!-- Generator: Adobe Illustrator 16.0.0, SVG Export Plug-In . SVG Version: 6.00 Build 0)  -->
<!DOCTYPE svg PUBLIC "-//W3C//DTD SVG 1.1//EN" "http://www.w3.org/Graphics/SVG/1.1/DTD/svg11.dtd">
<svg version="1.1" id="Layer_1" xmlns="http://www.w3.org/2000/svg" xmlns:xlink="http://www.w3.org/1999/xlink" x="0px" y="0px"
	 width="368.5px" height="595.279px" viewBox="0 0 368.5 595.279" enable-background="new 0 0 368.5 595.279" xml:space="preserve">
<title>trade_financing</title>
<g id="Layer_2">
	<g id="Layer_1-2">
		<path fill="#0F7ACD" d="M184.25,187.09c10.176,0,18.425,8.249,18.425,18.425s-8.249,18.425-18.425,18.425
			s-18.425-8.249-18.425-18.425S174.074,187.09,184.25,187.09 M184.25,150.24c-30.527,0-55.275,24.747-55.275,55.274
			s24.748,55.275,55.275,55.275s55.275-24.748,55.275-55.275S214.777,150.24,184.25,150.24z"/>
		<path fill="#0F7ACD" d="M82.913,445.04C37.155,444.959,0.081,407.885,0,362.127c-0.015-2.538,0.513-5.051,1.548-7.369
			l64.782-147.4c4.082-9.321,14.948-13.568,24.269-9.485c4.241,1.857,7.628,5.244,9.485,9.485l64.488,147.4
			c1.034,2.318,1.562,4.831,1.547,7.369C166.039,408,128.785,445.121,82.913,445.04L82.913,445.04z M36.85,365.665
			c2.034,25.358,24.239,44.267,49.597,42.232c22.534-1.807,40.426-19.699,42.233-42.232L82.913,260.79L36.85,365.665z"/>
		<polygon fill="#0F7ACD" points="119.763,417.403 46.063,417.403 18.425,352.915 147.4,352.915 		"/>
		<path fill="#0F7ACD" d="M285.588,445.04c-45.758-0.081-82.832-37.155-82.913-82.913c-0.015-2.538,0.513-5.051,1.548-7.369
			l64.487-147.4c4.083-9.321,14.948-13.568,24.269-9.485c4.242,1.857,7.629,5.244,9.486,9.485l64.487,147.4
			c1.035,2.318,1.563,4.831,1.548,7.369C368.419,407.885,331.345,444.959,285.588,445.04z M239.672,365.665
			c2.034,25.358,24.239,44.267,49.598,42.232c22.534-1.807,40.426-19.699,42.233-42.232L285.588,260.79L239.672,365.665z"/>
		<polygon fill="#0F7ACD" points="322.438,417.403 248.737,417.403 221.1,352.915 350.075,352.915 		"/>
		<path fill="#0F7ACD" d="M147.4,223.94H55.275c-10.176,0-18.425-8.249-18.425-18.425s8.249-18.425,18.425-18.425H147.4
			c10.176,0,18.425,8.249,18.425,18.425S157.576,223.94,147.4,223.94z"/>
		<path fill="#0F7ACD" d="M313.225,223.94H221.1c-10.176,0-18.425-8.249-18.425-18.425s8.249-18.425,18.425-18.425h92.125
			c10.176,0,18.426,8.249,18.426,18.425S323.4,223.94,313.225,223.94z"/>
	</g>
</g>
</svg>
